%TF.GenerationSoftware,KiCad,Pcbnew,7.0.9*%
%TF.CreationDate,2023-12-07T13:52:13-06:00*%
%TF.ProjectId,smartportsd-smd,736d6172-7470-46f7-9274-73642d736d64,1.1*%
%TF.SameCoordinates,Original*%
%TF.FileFunction,Soldermask,Top*%
%TF.FilePolarity,Negative*%
%FSLAX46Y46*%
G04 Gerber Fmt 4.6, Leading zero omitted, Abs format (unit mm)*
G04 Created by KiCad (PCBNEW 7.0.9) date 2023-12-07 13:52:13*
%MOMM*%
%LPD*%
G01*
G04 APERTURE LIST*
G04 Aperture macros list*
%AMRoundRect*
0 Rectangle with rounded corners*
0 $1 Rounding radius*
0 $2 $3 $4 $5 $6 $7 $8 $9 X,Y pos of 4 corners*
0 Add a 4 corners polygon primitive as box body*
4,1,4,$2,$3,$4,$5,$6,$7,$8,$9,$2,$3,0*
0 Add four circle primitives for the rounded corners*
1,1,$1+$1,$2,$3*
1,1,$1+$1,$4,$5*
1,1,$1+$1,$6,$7*
1,1,$1+$1,$8,$9*
0 Add four rect primitives between the rounded corners*
20,1,$1+$1,$2,$3,$4,$5,0*
20,1,$1+$1,$4,$5,$6,$7,0*
20,1,$1+$1,$6,$7,$8,$9,0*
20,1,$1+$1,$8,$9,$2,$3,0*%
G04 Aperture macros list end*
%ADD10C,2.700000*%
%ADD11O,2.100000X2.300000*%
%ADD12R,1.600000X0.550000*%
%ADD13R,0.550000X1.600000*%
%ADD14RoundRect,0.250000X0.425000X-0.537500X0.425000X0.537500X-0.425000X0.537500X-0.425000X-0.537500X0*%
%ADD15RoundRect,0.250000X0.350000X0.450000X-0.350000X0.450000X-0.350000X-0.450000X0.350000X-0.450000X0*%
%ADD16RoundRect,0.250000X0.337500X0.475000X-0.337500X0.475000X-0.337500X-0.475000X0.337500X-0.475000X0*%
%ADD17RoundRect,0.250000X-0.450000X0.350000X-0.450000X-0.350000X0.450000X-0.350000X0.450000X0.350000X0*%
%ADD18RoundRect,0.200000X0.200000X0.800000X-0.200000X0.800000X-0.200000X-0.800000X0.200000X-0.800000X0*%
%ADD19R,2.100000X1.800000*%
%ADD20C,2.200000*%
%ADD21C,1.650000*%
%ADD22R,1.500000X2.800000*%
%ADD23R,0.700000X1.500000*%
%ADD24R,1.000000X1.500000*%
%ADD25RoundRect,0.250000X-0.537500X-0.425000X0.537500X-0.425000X0.537500X0.425000X-0.537500X0.425000X0*%
%ADD26C,1.700000*%
%ADD27RoundRect,0.250000X-0.600000X-0.600000X0.600000X-0.600000X0.600000X0.600000X-0.600000X0.600000X0*%
%ADD28R,0.900000X0.900000*%
%ADD29R,1.500000X1.500000*%
%ADD30RoundRect,0.250001X0.499999X0.924999X-0.499999X0.924999X-0.499999X-0.924999X0.499999X-0.924999X0*%
%ADD31RoundRect,0.250000X-0.475000X0.337500X-0.475000X-0.337500X0.475000X-0.337500X0.475000X0.337500X0*%
%ADD32RoundRect,0.250000X0.450000X-0.350000X0.450000X0.350000X-0.450000X0.350000X-0.450000X-0.350000X0*%
%ADD33R,1.500000X2.000000*%
%ADD34R,3.800000X2.000000*%
%ADD35RoundRect,0.150000X-0.825000X-0.150000X0.825000X-0.150000X0.825000X0.150000X-0.825000X0.150000X0*%
G04 APERTURE END LIST*
D10*
%TO.C,J1*%
X173368000Y-128270000D03*
X136178000Y-128270000D03*
D11*
X167238000Y-126850000D03*
X164468000Y-126850000D03*
X161698000Y-126850000D03*
X153388000Y-126850000D03*
X142308000Y-126850000D03*
X165853000Y-129690000D03*
X163083000Y-129690000D03*
X160313000Y-129690000D03*
X157543000Y-129690000D03*
X146463000Y-129690000D03*
X143693000Y-129690000D03*
%TD*%
D12*
%TO.C,U1*%
X162755000Y-115056000D03*
X162755000Y-115856000D03*
X162755000Y-116656000D03*
X162755000Y-117456000D03*
X162755000Y-118256000D03*
X162755000Y-119056000D03*
X162755000Y-119856000D03*
X162755000Y-120656000D03*
D13*
X164205000Y-122106000D03*
X165005000Y-122106000D03*
X165805000Y-122106000D03*
X166605000Y-122106000D03*
X167405000Y-122106000D03*
X168205000Y-122106000D03*
X169005000Y-122106000D03*
X169805000Y-122106000D03*
D12*
X171255000Y-120656000D03*
X171255000Y-119856000D03*
X171255000Y-119056000D03*
X171255000Y-118256000D03*
X171255000Y-117456000D03*
X171255000Y-116656000D03*
X171255000Y-115856000D03*
X171255000Y-115056000D03*
D13*
X169805000Y-113606000D03*
X169005000Y-113606000D03*
X168205000Y-113606000D03*
X167405000Y-113606000D03*
X166605000Y-113606000D03*
X165805000Y-113606000D03*
X165005000Y-113606000D03*
X164205000Y-113606000D03*
%TD*%
D14*
%TO.C,C7*%
X143891000Y-121960500D03*
X143891000Y-119085500D03*
%TD*%
D15*
%TO.C,R6*%
X166481000Y-101092000D03*
X164481000Y-101092000D03*
%TD*%
D16*
%TO.C,C6*%
X148738500Y-111760000D03*
X146663500Y-111760000D03*
%TD*%
D15*
%TO.C,R8*%
X166481000Y-93980000D03*
X164481000Y-93980000D03*
%TD*%
D16*
%TO.C,C2*%
X158136500Y-112776000D03*
X156061500Y-112776000D03*
%TD*%
D17*
%TO.C,R3*%
X172847000Y-84836000D03*
X172847000Y-86836000D03*
%TD*%
%TO.C,R1*%
X166624000Y-109490000D03*
X166624000Y-111490000D03*
%TD*%
D18*
%TO.C,SW1*%
X170883000Y-91186000D03*
X166683000Y-91186000D03*
%TD*%
D19*
%TO.C,Y1*%
X155395000Y-117736000D03*
X158295000Y-117736000D03*
X158295000Y-115436000D03*
X155395000Y-115436000D03*
%TD*%
D15*
%TO.C,R5*%
X166481000Y-98044000D03*
X164481000Y-98044000D03*
%TD*%
D20*
%TO.C,J3*%
X139506000Y-105346000D03*
D21*
X160506000Y-105346000D03*
D22*
X137556000Y-106146000D03*
X162656000Y-106146000D03*
X135356000Y-84646000D03*
X162656000Y-84646000D03*
D23*
X161161000Y-108146000D03*
X159961000Y-108146000D03*
D24*
X139631000Y-108146000D03*
X158761000Y-108146000D03*
X157061000Y-108146000D03*
X154631000Y-108146000D03*
X152131000Y-108146000D03*
X149631000Y-108146000D03*
X147131000Y-108146000D03*
X144631000Y-108146000D03*
X142131000Y-108146000D03*
%TD*%
D25*
%TO.C,C5*%
X166202500Y-107442000D03*
X169077500Y-107442000D03*
%TD*%
D26*
%TO.C,J2*%
X173101000Y-101981000D03*
X170561000Y-101981000D03*
X173101000Y-99441000D03*
X170561000Y-99441000D03*
X173101000Y-96901000D03*
D27*
X170561000Y-96901000D03*
%TD*%
D15*
%TO.C,R4*%
X166481000Y-96012000D03*
X164481000Y-96012000D03*
%TD*%
D28*
%TO.C,D1*%
X168783000Y-85513000D03*
D29*
X170533000Y-84963000D03*
X167033000Y-84963000D03*
%TD*%
D30*
%TO.C,C8*%
X141579000Y-112141000D03*
X138329000Y-112141000D03*
%TD*%
D31*
%TO.C,C1*%
X171704000Y-109452500D03*
X171704000Y-111527500D03*
%TD*%
D15*
%TO.C,R7*%
X166481000Y-103124000D03*
X164481000Y-103124000D03*
%TD*%
D32*
%TO.C,R2*%
X172847000Y-91154000D03*
X172847000Y-89154000D03*
%TD*%
D16*
%TO.C,C3*%
X157882500Y-120396000D03*
X155807500Y-120396000D03*
%TD*%
%TO.C,C4*%
X164105500Y-111125000D03*
X162030500Y-111125000D03*
%TD*%
D33*
%TO.C,U3*%
X136511000Y-121768000D03*
X138811000Y-121768000D03*
D34*
X138811000Y-115468000D03*
D33*
X141111000Y-121768000D03*
%TD*%
D35*
%TO.C,U2*%
X147004000Y-113665000D03*
X147004000Y-114935000D03*
X147004000Y-116205000D03*
X147004000Y-117475000D03*
X147004000Y-118745000D03*
X147004000Y-120015000D03*
X147004000Y-121285000D03*
X147004000Y-122555000D03*
X151954000Y-122555000D03*
X151954000Y-121285000D03*
X151954000Y-120015000D03*
X151954000Y-118745000D03*
X151954000Y-117475000D03*
X151954000Y-116205000D03*
X151954000Y-114935000D03*
X151954000Y-113665000D03*
%TD*%
M02*
