M48
; DRILL file {KiCad 7.0.9} date Thu Dec  7 13:52:16 2023
; FORMAT={-:-/ absolute / inch / decimal}
; #@! TF.CreationDate,2023-12-07T13:52:16-06:00
; #@! TF.GenerationSoftware,Kicad,Pcbnew,7.0.9
; #@! TF.FileFunction,MixedPlating,1,2
FMAT,2
INCH
; #@! TA.AperFunction,Plated,PTH,ViaDrill
T1C0.0118
; #@! TA.AperFunction,Plated,PTH,ViaDrill
T2C0.0157
; #@! TA.AperFunction,Plated,PTH,ComponentDrill
T3C0.0394
; #@! TA.AperFunction,Plated,PTH,ComponentDrill
T4C0.0433
; #@! TA.AperFunction,Plated,PTH,ComponentDrill
T5C0.0630
; #@! TA.AperFunction,NonPlated,NPTH,ComponentDrill
T6C0.1063
%
G90
G05
T1
X6.05Y-4.835
X6.12Y-4.9053
X6.465Y-4.76
X6.495Y-4.74
X6.5261Y-4.7618
X6.54Y-4.555
X6.5487Y-4.64
X6.5674Y-4.5876
X6.595Y-4.54
X6.623Y-4.4251
X6.655Y-4.76
X6.661Y-4.423
T2
X5.355Y-4.63
X5.355Y-4.67
X5.355Y-4.71
X5.375Y-4.86
X5.395Y-4.415
X5.405Y-4.63
X5.405Y-4.67
X5.405Y-4.71
X5.47Y-3.34
X5.485Y-4.01
X5.525Y-4.63
X5.525Y-4.67
X5.525Y-4.71
X5.545Y-4.205
X5.57Y-4.63
X5.57Y-4.67
X5.57Y-4.71
X5.595Y-4.205
X5.6Y-4.56
X5.66Y-4.525
X5.695Y-4.205
X5.695Y-4.595
X5.795Y-4.205
X5.85Y-4.725
X5.87Y-3.63
X5.895Y-4.205
X5.99Y-4.205
X5.99Y-4.42
X6.09Y-4.205
X6.12Y-4.49
X6.1835Y-4.2065
X6.23Y-4.69
X6.25Y-4.205
X6.285Y-3.335
X6.325Y-4.63
X6.3639Y-4.6868
X6.4Y-4.465
X6.435Y-3.7
X6.435Y-3.78
X6.435Y-3.86
X6.435Y-3.92
X6.435Y-3.98
X6.435Y-4.06
X6.46Y-4.595
X6.5Y-4.375
X6.575Y-3.395
X6.5965Y-3.92
X6.67Y-5.14
X6.685Y-3.59
X6.69Y-4.625
X6.71Y-4.995
X6.715Y-4.23
X6.8Y-4.75
X6.815Y-4.31
X6.86Y-3.42
X6.86Y-3.51
T3
X6.715Y-3.815
X6.715Y-3.915
X6.715Y-4.015
X6.815Y-3.815
X6.815Y-3.915
X6.815Y-4.015
T4
X6.3191Y-4.1475
T5
X5.4924Y-4.1475
X5.6027Y-4.9941
X5.6572Y-5.1059
X5.7663Y-5.1059
X6.0389Y-4.9941
X6.2025Y-5.1059
X6.3115Y-5.1059
X6.3661Y-4.9941
X6.4206Y-5.1059
X6.4751Y-4.9941
X6.5296Y-5.1059
X6.5842Y-4.9941
T6
X5.3613Y-5.05
X6.8255Y-5.05
T0
M30
