%TF.GenerationSoftware,KiCad,Pcbnew,(5.1.9)-1*%
%TF.CreationDate,2021-02-16T00:15:54-06:00*%
%TF.ProjectId,SmartportSD-Nano-Shield,536d6172-7470-46f7-9274-53442d4e616e,rev?*%
%TF.SameCoordinates,Original*%
%TF.FileFunction,Legend,Top*%
%TF.FilePolarity,Positive*%
%FSLAX46Y46*%
G04 Gerber Fmt 4.6, Leading zero omitted, Abs format (unit mm)*
G04 Created by KiCad (PCBNEW (5.1.9)-1) date 2021-02-16 00:15:54*
%MOMM*%
%LPD*%
G01*
G04 APERTURE LIST*
%ADD10C,0.200000*%
%ADD11C,0.150000*%
%ADD12C,0.120000*%
%ADD13C,2.500000*%
%ADD14O,1.200000X2.000000*%
%ADD15O,1.600000X1.600000*%
%ADD16C,1.600000*%
%ADD17O,1.700000X1.700000*%
%ADD18R,1.700000X1.700000*%
%ADD19C,1.800000*%
%ADD20R,1.800000X1.800000*%
%ADD21C,1.200000*%
%ADD22R,1.200000X1.200000*%
%ADD23R,1.600000X1.600000*%
%ADD24C,1.700000*%
%ADD25C,4.000000*%
G04 APERTURE END LIST*
D10*
X135080952Y-108164380D02*
X135080952Y-108878666D01*
X135033333Y-109021523D01*
X134938095Y-109116761D01*
X134795238Y-109164380D01*
X134700000Y-109164380D01*
X136033333Y-109164380D02*
X135557142Y-109164380D01*
X135557142Y-108164380D01*
X136938095Y-109069142D02*
X136890476Y-109116761D01*
X136747619Y-109164380D01*
X136652380Y-109164380D01*
X136509523Y-109116761D01*
X136414285Y-109021523D01*
X136366666Y-108926285D01*
X136319047Y-108735809D01*
X136319047Y-108592952D01*
X136366666Y-108402476D01*
X136414285Y-108307238D01*
X136509523Y-108212000D01*
X136652380Y-108164380D01*
X136747619Y-108164380D01*
X136890476Y-108212000D01*
X136938095Y-108259619D01*
X137652380Y-108164380D02*
X137652380Y-108878666D01*
X137604761Y-109021523D01*
X137509523Y-109116761D01*
X137366666Y-109164380D01*
X137271428Y-109164380D01*
X138604761Y-109164380D02*
X138128571Y-109164380D01*
X138128571Y-108164380D01*
X139509523Y-109069142D02*
X139461904Y-109116761D01*
X139319047Y-109164380D01*
X139223809Y-109164380D01*
X139080952Y-109116761D01*
X138985714Y-109021523D01*
X138938095Y-108926285D01*
X138890476Y-108735809D01*
X138890476Y-108592952D01*
X138938095Y-108402476D01*
X138985714Y-108307238D01*
X139080952Y-108212000D01*
X139223809Y-108164380D01*
X139319047Y-108164380D01*
X139461904Y-108212000D01*
X139509523Y-108259619D01*
X140223809Y-108164380D02*
X140223809Y-108878666D01*
X140176190Y-109021523D01*
X140080952Y-109116761D01*
X139938095Y-109164380D01*
X139842857Y-109164380D01*
X141176190Y-109164380D02*
X140700000Y-109164380D01*
X140700000Y-108164380D01*
X142080952Y-109069142D02*
X142033333Y-109116761D01*
X141890476Y-109164380D01*
X141795238Y-109164380D01*
X141652380Y-109116761D01*
X141557142Y-109021523D01*
X141509523Y-108926285D01*
X141461904Y-108735809D01*
X141461904Y-108592952D01*
X141509523Y-108402476D01*
X141557142Y-108307238D01*
X141652380Y-108212000D01*
X141795238Y-108164380D01*
X141890476Y-108164380D01*
X142033333Y-108212000D01*
X142080952Y-108259619D01*
X142795238Y-108164380D02*
X142795238Y-108878666D01*
X142747619Y-109021523D01*
X142652380Y-109116761D01*
X142509523Y-109164380D01*
X142414285Y-109164380D01*
X143747619Y-109164380D02*
X143271428Y-109164380D01*
X143271428Y-108164380D01*
X144652380Y-109069142D02*
X144604761Y-109116761D01*
X144461904Y-109164380D01*
X144366666Y-109164380D01*
X144223809Y-109116761D01*
X144128571Y-109021523D01*
X144080952Y-108926285D01*
X144033333Y-108735809D01*
X144033333Y-108592952D01*
X144080952Y-108402476D01*
X144128571Y-108307238D01*
X144223809Y-108212000D01*
X144366666Y-108164380D01*
X144461904Y-108164380D01*
X144604761Y-108212000D01*
X144652380Y-108259619D01*
D11*
X159347761Y-88596952D02*
X159395380Y-88454095D01*
X159395380Y-88216000D01*
X159347761Y-88120761D01*
X159300142Y-88073142D01*
X159204904Y-88025523D01*
X159109666Y-88025523D01*
X159014428Y-88073142D01*
X158966809Y-88120761D01*
X158919190Y-88216000D01*
X158871571Y-88406476D01*
X158823952Y-88501714D01*
X158776333Y-88549333D01*
X158681095Y-88596952D01*
X158585857Y-88596952D01*
X158490619Y-88549333D01*
X158443000Y-88501714D01*
X158395380Y-88406476D01*
X158395380Y-88168380D01*
X158443000Y-88025523D01*
X159395380Y-87596952D02*
X158728714Y-87596952D01*
X158823952Y-87596952D02*
X158776333Y-87549333D01*
X158728714Y-87454095D01*
X158728714Y-87311238D01*
X158776333Y-87216000D01*
X158871571Y-87168380D01*
X159395380Y-87168380D01*
X158871571Y-87168380D02*
X158776333Y-87120761D01*
X158728714Y-87025523D01*
X158728714Y-86882666D01*
X158776333Y-86787428D01*
X158871571Y-86739809D01*
X159395380Y-86739809D01*
X159395380Y-85835047D02*
X158871571Y-85835047D01*
X158776333Y-85882666D01*
X158728714Y-85977904D01*
X158728714Y-86168380D01*
X158776333Y-86263619D01*
X159347761Y-85835047D02*
X159395380Y-85930285D01*
X159395380Y-86168380D01*
X159347761Y-86263619D01*
X159252523Y-86311238D01*
X159157285Y-86311238D01*
X159062047Y-86263619D01*
X159014428Y-86168380D01*
X159014428Y-85930285D01*
X158966809Y-85835047D01*
X159395380Y-85358857D02*
X158728714Y-85358857D01*
X158919190Y-85358857D02*
X158823952Y-85311238D01*
X158776333Y-85263619D01*
X158728714Y-85168380D01*
X158728714Y-85073142D01*
X158728714Y-84882666D02*
X158728714Y-84501714D01*
X158395380Y-84739809D02*
X159252523Y-84739809D01*
X159347761Y-84692190D01*
X159395380Y-84596952D01*
X159395380Y-84501714D01*
X158728714Y-84168380D02*
X159728714Y-84168380D01*
X158776333Y-84168380D02*
X158728714Y-84073142D01*
X158728714Y-83882666D01*
X158776333Y-83787428D01*
X158823952Y-83739809D01*
X158919190Y-83692190D01*
X159204904Y-83692190D01*
X159300142Y-83739809D01*
X159347761Y-83787428D01*
X159395380Y-83882666D01*
X159395380Y-84073142D01*
X159347761Y-84168380D01*
X159395380Y-83120761D02*
X159347761Y-83216000D01*
X159300142Y-83263619D01*
X159204904Y-83311238D01*
X158919190Y-83311238D01*
X158823952Y-83263619D01*
X158776333Y-83216000D01*
X158728714Y-83120761D01*
X158728714Y-82977904D01*
X158776333Y-82882666D01*
X158823952Y-82835047D01*
X158919190Y-82787428D01*
X159204904Y-82787428D01*
X159300142Y-82835047D01*
X159347761Y-82882666D01*
X159395380Y-82977904D01*
X159395380Y-83120761D01*
X159395380Y-82358857D02*
X158728714Y-82358857D01*
X158919190Y-82358857D02*
X158823952Y-82311238D01*
X158776333Y-82263619D01*
X158728714Y-82168380D01*
X158728714Y-82073142D01*
X158728714Y-81882666D02*
X158728714Y-81501714D01*
X158395380Y-81739809D02*
X159252523Y-81739809D01*
X159347761Y-81692190D01*
X159395380Y-81596952D01*
X159395380Y-81501714D01*
X159347761Y-81216000D02*
X159395380Y-81073142D01*
X159395380Y-80835047D01*
X159347761Y-80739809D01*
X159300142Y-80692190D01*
X159204904Y-80644571D01*
X159109666Y-80644571D01*
X159014428Y-80692190D01*
X158966809Y-80739809D01*
X158919190Y-80835047D01*
X158871571Y-81025523D01*
X158823952Y-81120761D01*
X158776333Y-81168380D01*
X158681095Y-81216000D01*
X158585857Y-81216000D01*
X158490619Y-81168380D01*
X158443000Y-81120761D01*
X158395380Y-81025523D01*
X158395380Y-80787428D01*
X158443000Y-80644571D01*
X159395380Y-80216000D02*
X158395380Y-80216000D01*
X158395380Y-79977904D01*
X158443000Y-79835047D01*
X158538238Y-79739809D01*
X158633476Y-79692190D01*
X158823952Y-79644571D01*
X158966809Y-79644571D01*
X159157285Y-79692190D01*
X159252523Y-79739809D01*
X159347761Y-79835047D01*
X159395380Y-79977904D01*
X159395380Y-80216000D01*
X159395380Y-78454095D02*
X158395380Y-78454095D01*
X159395380Y-77882666D01*
X158395380Y-77882666D01*
X159395380Y-76977904D02*
X158871571Y-76977904D01*
X158776333Y-77025523D01*
X158728714Y-77120761D01*
X158728714Y-77311238D01*
X158776333Y-77406476D01*
X159347761Y-76977904D02*
X159395380Y-77073142D01*
X159395380Y-77311238D01*
X159347761Y-77406476D01*
X159252523Y-77454095D01*
X159157285Y-77454095D01*
X159062047Y-77406476D01*
X159014428Y-77311238D01*
X159014428Y-77073142D01*
X158966809Y-76977904D01*
X158728714Y-76501714D02*
X159395380Y-76501714D01*
X158823952Y-76501714D02*
X158776333Y-76454095D01*
X158728714Y-76358857D01*
X158728714Y-76216000D01*
X158776333Y-76120761D01*
X158871571Y-76073142D01*
X159395380Y-76073142D01*
X159395380Y-75454095D02*
X159347761Y-75549333D01*
X159300142Y-75596952D01*
X159204904Y-75644571D01*
X158919190Y-75644571D01*
X158823952Y-75596952D01*
X158776333Y-75549333D01*
X158728714Y-75454095D01*
X158728714Y-75311238D01*
X158776333Y-75216000D01*
X158823952Y-75168380D01*
X158919190Y-75120761D01*
X159204904Y-75120761D01*
X159300142Y-75168380D01*
X159347761Y-75216000D01*
X159395380Y-75311238D01*
X159395380Y-75454095D01*
X159347761Y-73977904D02*
X159395380Y-73835047D01*
X159395380Y-73596952D01*
X159347761Y-73501714D01*
X159300142Y-73454095D01*
X159204904Y-73406476D01*
X159109666Y-73406476D01*
X159014428Y-73454095D01*
X158966809Y-73501714D01*
X158919190Y-73596952D01*
X158871571Y-73787428D01*
X158823952Y-73882666D01*
X158776333Y-73930285D01*
X158681095Y-73977904D01*
X158585857Y-73977904D01*
X158490619Y-73930285D01*
X158443000Y-73882666D01*
X158395380Y-73787428D01*
X158395380Y-73549333D01*
X158443000Y-73406476D01*
X159395380Y-72977904D02*
X158395380Y-72977904D01*
X159395380Y-72549333D02*
X158871571Y-72549333D01*
X158776333Y-72596952D01*
X158728714Y-72692190D01*
X158728714Y-72835047D01*
X158776333Y-72930285D01*
X158823952Y-72977904D01*
X159395380Y-72073142D02*
X158728714Y-72073142D01*
X158395380Y-72073142D02*
X158443000Y-72120761D01*
X158490619Y-72073142D01*
X158443000Y-72025523D01*
X158395380Y-72073142D01*
X158490619Y-72073142D01*
X159347761Y-71216000D02*
X159395380Y-71311238D01*
X159395380Y-71501714D01*
X159347761Y-71596952D01*
X159252523Y-71644571D01*
X158871571Y-71644571D01*
X158776333Y-71596952D01*
X158728714Y-71501714D01*
X158728714Y-71311238D01*
X158776333Y-71216000D01*
X158871571Y-71168380D01*
X158966809Y-71168380D01*
X159062047Y-71644571D01*
X159395380Y-70596952D02*
X159347761Y-70692190D01*
X159252523Y-70739809D01*
X158395380Y-70739809D01*
X159395380Y-69787428D02*
X158395380Y-69787428D01*
X159347761Y-69787428D02*
X159395380Y-69882666D01*
X159395380Y-70073142D01*
X159347761Y-70168380D01*
X159300142Y-70216000D01*
X159204904Y-70263619D01*
X158919190Y-70263619D01*
X158823952Y-70216000D01*
X158776333Y-70168380D01*
X158728714Y-70073142D01*
X158728714Y-69882666D01*
X158776333Y-69787428D01*
X158728714Y-68644571D02*
X159395380Y-68406476D01*
X158728714Y-68168380D01*
X159395380Y-67263619D02*
X159395380Y-67835047D01*
X159395380Y-67549333D02*
X158395380Y-67549333D01*
X158538238Y-67644571D01*
X158633476Y-67739809D01*
X158681095Y-67835047D01*
X159300142Y-66835047D02*
X159347761Y-66787428D01*
X159395380Y-66835047D01*
X159347761Y-66882666D01*
X159300142Y-66835047D01*
X159395380Y-66835047D01*
X158395380Y-66168380D02*
X158395380Y-66073142D01*
X158443000Y-65977904D01*
X158490619Y-65930285D01*
X158585857Y-65882666D01*
X158776333Y-65835047D01*
X159014428Y-65835047D01*
X159204904Y-65882666D01*
X159300142Y-65930285D01*
X159347761Y-65977904D01*
X159395380Y-66073142D01*
X159395380Y-66168380D01*
X159347761Y-66263619D01*
X159300142Y-66311238D01*
X159204904Y-66358857D01*
X159014428Y-66406476D01*
X158776333Y-66406476D01*
X158585857Y-66358857D01*
X158490619Y-66311238D01*
X158443000Y-66263619D01*
X158395380Y-66168380D01*
X162600142Y-88406476D02*
X162647761Y-88454095D01*
X162695380Y-88596952D01*
X162695380Y-88692190D01*
X162647761Y-88835047D01*
X162552523Y-88930285D01*
X162457285Y-88977904D01*
X162266809Y-89025523D01*
X162123952Y-89025523D01*
X161933476Y-88977904D01*
X161838238Y-88930285D01*
X161743000Y-88835047D01*
X161695380Y-88692190D01*
X161695380Y-88596952D01*
X161743000Y-88454095D01*
X161790619Y-88406476D01*
X162695380Y-87835047D02*
X162647761Y-87930285D01*
X162600142Y-87977904D01*
X162504904Y-88025523D01*
X162219190Y-88025523D01*
X162123952Y-87977904D01*
X162076333Y-87930285D01*
X162028714Y-87835047D01*
X162028714Y-87692190D01*
X162076333Y-87596952D01*
X162123952Y-87549333D01*
X162219190Y-87501714D01*
X162504904Y-87501714D01*
X162600142Y-87549333D01*
X162647761Y-87596952D01*
X162695380Y-87692190D01*
X162695380Y-87835047D01*
X162695380Y-86644571D02*
X161695380Y-86644571D01*
X162647761Y-86644571D02*
X162695380Y-86739809D01*
X162695380Y-86930285D01*
X162647761Y-87025523D01*
X162600142Y-87073142D01*
X162504904Y-87120761D01*
X162219190Y-87120761D01*
X162123952Y-87073142D01*
X162076333Y-87025523D01*
X162028714Y-86930285D01*
X162028714Y-86739809D01*
X162076333Y-86644571D01*
X162647761Y-85787428D02*
X162695380Y-85882666D01*
X162695380Y-86073142D01*
X162647761Y-86168380D01*
X162552523Y-86216000D01*
X162171571Y-86216000D01*
X162076333Y-86168380D01*
X162028714Y-86073142D01*
X162028714Y-85882666D01*
X162076333Y-85787428D01*
X162171571Y-85739809D01*
X162266809Y-85739809D01*
X162362047Y-86216000D01*
X162695380Y-84549333D02*
X161695380Y-84549333D01*
X162076333Y-84549333D02*
X162028714Y-84454095D01*
X162028714Y-84263619D01*
X162076333Y-84168380D01*
X162123952Y-84120761D01*
X162219190Y-84073142D01*
X162504904Y-84073142D01*
X162600142Y-84120761D01*
X162647761Y-84168380D01*
X162695380Y-84263619D01*
X162695380Y-84454095D01*
X162647761Y-84549333D01*
X162028714Y-83739809D02*
X162695380Y-83501714D01*
X162028714Y-83263619D02*
X162695380Y-83501714D01*
X162933476Y-83596952D01*
X162981095Y-83644571D01*
X163028714Y-83739809D01*
X162695380Y-81549333D02*
X162219190Y-81882666D01*
X162695380Y-82120761D02*
X161695380Y-82120761D01*
X161695380Y-81739809D01*
X161743000Y-81644571D01*
X161790619Y-81596952D01*
X161885857Y-81549333D01*
X162028714Y-81549333D01*
X162123952Y-81596952D01*
X162171571Y-81644571D01*
X162219190Y-81739809D01*
X162219190Y-82120761D01*
X162695380Y-80977904D02*
X162647761Y-81073142D01*
X162600142Y-81120761D01*
X162504904Y-81168380D01*
X162219190Y-81168380D01*
X162123952Y-81120761D01*
X162076333Y-81073142D01*
X162028714Y-80977904D01*
X162028714Y-80835047D01*
X162076333Y-80739809D01*
X162123952Y-80692190D01*
X162219190Y-80644571D01*
X162504904Y-80644571D01*
X162600142Y-80692190D01*
X162647761Y-80739809D01*
X162695380Y-80835047D01*
X162695380Y-80977904D01*
X162695380Y-80216000D02*
X161695380Y-80216000D01*
X162076333Y-80216000D02*
X162028714Y-80120761D01*
X162028714Y-79930285D01*
X162076333Y-79835047D01*
X162123952Y-79787428D01*
X162219190Y-79739809D01*
X162504904Y-79739809D01*
X162600142Y-79787428D01*
X162647761Y-79835047D01*
X162695380Y-79930285D01*
X162695380Y-80120761D01*
X162647761Y-80216000D01*
X162647761Y-78930285D02*
X162695380Y-79025523D01*
X162695380Y-79216000D01*
X162647761Y-79311238D01*
X162552523Y-79358857D01*
X162171571Y-79358857D01*
X162076333Y-79311238D01*
X162028714Y-79216000D01*
X162028714Y-79025523D01*
X162076333Y-78930285D01*
X162171571Y-78882666D01*
X162266809Y-78882666D01*
X162362047Y-79358857D01*
X162695380Y-78454095D02*
X162028714Y-78454095D01*
X162219190Y-78454095D02*
X162123952Y-78406476D01*
X162076333Y-78358857D01*
X162028714Y-78263619D01*
X162028714Y-78168380D01*
X162028714Y-77977904D02*
X162028714Y-77596952D01*
X161695380Y-77835047D02*
X162552523Y-77835047D01*
X162647761Y-77787428D01*
X162695380Y-77692190D01*
X162695380Y-77596952D01*
X161695380Y-76216000D02*
X162409666Y-76216000D01*
X162552523Y-76263619D01*
X162647761Y-76358857D01*
X162695380Y-76501714D01*
X162695380Y-76596952D01*
X162028714Y-75311238D02*
X162695380Y-75311238D01*
X162028714Y-75739809D02*
X162552523Y-75739809D01*
X162647761Y-75692190D01*
X162695380Y-75596952D01*
X162695380Y-75454095D01*
X162647761Y-75358857D01*
X162600142Y-75311238D01*
X162647761Y-74882666D02*
X162695380Y-74787428D01*
X162695380Y-74596952D01*
X162647761Y-74501714D01*
X162552523Y-74454095D01*
X162504904Y-74454095D01*
X162409666Y-74501714D01*
X162362047Y-74596952D01*
X162362047Y-74739809D01*
X162314428Y-74835047D01*
X162219190Y-74882666D01*
X162171571Y-74882666D01*
X162076333Y-74835047D01*
X162028714Y-74739809D01*
X162028714Y-74596952D01*
X162076333Y-74501714D01*
X162028714Y-74168380D02*
X162028714Y-73787428D01*
X161695380Y-74025523D02*
X162552523Y-74025523D01*
X162647761Y-73977904D01*
X162695380Y-73882666D01*
X162695380Y-73787428D01*
X162695380Y-73454095D02*
X162028714Y-73454095D01*
X161695380Y-73454095D02*
X161743000Y-73501714D01*
X161790619Y-73454095D01*
X161743000Y-73406476D01*
X161695380Y-73454095D01*
X161790619Y-73454095D01*
X162647761Y-72549333D02*
X162695380Y-72644571D01*
X162695380Y-72835047D01*
X162647761Y-72930285D01*
X162600142Y-72977904D01*
X162504904Y-73025523D01*
X162219190Y-73025523D01*
X162123952Y-72977904D01*
X162076333Y-72930285D01*
X162028714Y-72835047D01*
X162028714Y-72644571D01*
X162076333Y-72549333D01*
X162647761Y-71739809D02*
X162695380Y-71835047D01*
X162695380Y-72025523D01*
X162647761Y-72120761D01*
X162552523Y-72168380D01*
X162171571Y-72168380D01*
X162076333Y-72120761D01*
X162028714Y-72025523D01*
X162028714Y-71835047D01*
X162076333Y-71739809D01*
X162171571Y-71692190D01*
X162266809Y-71692190D01*
X162362047Y-72168380D01*
X162647761Y-71216000D02*
X162695380Y-71216000D01*
X162790619Y-71263619D01*
X162838238Y-71311238D01*
X162409666Y-70073142D02*
X162409666Y-69596952D01*
X162695380Y-70168380D02*
X161695380Y-69835047D01*
X162695380Y-69501714D01*
X162028714Y-69168380D02*
X162695380Y-69168380D01*
X162123952Y-69168380D02*
X162076333Y-69120761D01*
X162028714Y-69025523D01*
X162028714Y-68882666D01*
X162076333Y-68787428D01*
X162171571Y-68739809D01*
X162695380Y-68739809D01*
X162695380Y-67835047D02*
X161695380Y-67835047D01*
X162647761Y-67835047D02*
X162695380Y-67930285D01*
X162695380Y-68120761D01*
X162647761Y-68216000D01*
X162600142Y-68263619D01*
X162504904Y-68311238D01*
X162219190Y-68311238D01*
X162123952Y-68263619D01*
X162076333Y-68216000D01*
X162028714Y-68120761D01*
X162028714Y-67930285D01*
X162076333Y-67835047D01*
X162695380Y-67358857D02*
X162028714Y-67358857D01*
X162219190Y-67358857D02*
X162123952Y-67311238D01*
X162076333Y-67263619D01*
X162028714Y-67168380D01*
X162028714Y-67073142D01*
X162647761Y-66358857D02*
X162695380Y-66454095D01*
X162695380Y-66644571D01*
X162647761Y-66739809D01*
X162552523Y-66787428D01*
X162171571Y-66787428D01*
X162076333Y-66739809D01*
X162028714Y-66644571D01*
X162028714Y-66454095D01*
X162076333Y-66358857D01*
X162171571Y-66311238D01*
X162266809Y-66311238D01*
X162362047Y-66787428D01*
X162695380Y-65454095D02*
X162171571Y-65454095D01*
X162076333Y-65501714D01*
X162028714Y-65596952D01*
X162028714Y-65787428D01*
X162076333Y-65882666D01*
X162647761Y-65454095D02*
X162695380Y-65549333D01*
X162695380Y-65787428D01*
X162647761Y-65882666D01*
X162552523Y-65930285D01*
X162457285Y-65930285D01*
X162362047Y-65882666D01*
X162314428Y-65787428D01*
X162314428Y-65549333D01*
X162266809Y-65454095D01*
X163345380Y-88073142D02*
X163345380Y-87882666D01*
X163393000Y-87787428D01*
X163488238Y-87692190D01*
X163678714Y-87644571D01*
X164012047Y-87644571D01*
X164202523Y-87692190D01*
X164297761Y-87787428D01*
X164345380Y-87882666D01*
X164345380Y-88073142D01*
X164297761Y-88168380D01*
X164202523Y-88263619D01*
X164012047Y-88311238D01*
X163678714Y-88311238D01*
X163488238Y-88263619D01*
X163393000Y-88168380D01*
X163345380Y-88073142D01*
X163678714Y-87358857D02*
X163678714Y-86977904D01*
X163345380Y-87216000D02*
X164202523Y-87216000D01*
X164297761Y-87168380D01*
X164345380Y-87073142D01*
X164345380Y-86977904D01*
X163678714Y-86787428D02*
X163678714Y-86406476D01*
X163345380Y-86644571D02*
X164202523Y-86644571D01*
X164297761Y-86596952D01*
X164345380Y-86501714D01*
X164345380Y-86406476D01*
X164345380Y-85644571D02*
X163821571Y-85644571D01*
X163726333Y-85692190D01*
X163678714Y-85787428D01*
X163678714Y-85977904D01*
X163726333Y-86073142D01*
X164297761Y-85644571D02*
X164345380Y-85739809D01*
X164345380Y-85977904D01*
X164297761Y-86073142D01*
X164202523Y-86120761D01*
X164107285Y-86120761D01*
X164012047Y-86073142D01*
X163964428Y-85977904D01*
X163964428Y-85739809D01*
X163916809Y-85644571D01*
X163678714Y-85263619D02*
X164345380Y-85025523D01*
X163678714Y-84787428D01*
X164345380Y-84406476D02*
X163678714Y-84406476D01*
X163345380Y-84406476D02*
X163393000Y-84454095D01*
X163440619Y-84406476D01*
X163393000Y-84358857D01*
X163345380Y-84406476D01*
X163440619Y-84406476D01*
X164345380Y-83501714D02*
X163821571Y-83501714D01*
X163726333Y-83549333D01*
X163678714Y-83644571D01*
X163678714Y-83835047D01*
X163726333Y-83930285D01*
X164297761Y-83501714D02*
X164345380Y-83596952D01*
X164345380Y-83835047D01*
X164297761Y-83930285D01*
X164202523Y-83977904D01*
X164107285Y-83977904D01*
X164012047Y-83930285D01*
X163964428Y-83835047D01*
X163964428Y-83596952D01*
X163916809Y-83501714D01*
X163678714Y-83025523D02*
X164345380Y-83025523D01*
X163773952Y-83025523D02*
X163726333Y-82977904D01*
X163678714Y-82882666D01*
X163678714Y-82739809D01*
X163726333Y-82644571D01*
X163821571Y-82596952D01*
X164345380Y-82596952D01*
X164345380Y-82120761D02*
X163678714Y-82120761D01*
X163345380Y-82120761D02*
X163393000Y-82168380D01*
X163440619Y-82120761D01*
X163393000Y-82073142D01*
X163345380Y-82120761D01*
X163440619Y-82120761D01*
X164345380Y-80454095D02*
X163821571Y-80454095D01*
X163726333Y-80501714D01*
X163678714Y-80596952D01*
X163678714Y-80787428D01*
X163726333Y-80882666D01*
X164297761Y-80454095D02*
X164345380Y-80549333D01*
X164345380Y-80787428D01*
X164297761Y-80882666D01*
X164202523Y-80930285D01*
X164107285Y-80930285D01*
X164012047Y-80882666D01*
X163964428Y-80787428D01*
X163964428Y-80549333D01*
X163916809Y-80454095D01*
X163678714Y-79977904D02*
X164345380Y-79977904D01*
X163773952Y-79977904D02*
X163726333Y-79930285D01*
X163678714Y-79835047D01*
X163678714Y-79692190D01*
X163726333Y-79596952D01*
X163821571Y-79549333D01*
X164345380Y-79549333D01*
X164345380Y-78644571D02*
X163345380Y-78644571D01*
X164297761Y-78644571D02*
X164345380Y-78739809D01*
X164345380Y-78930285D01*
X164297761Y-79025523D01*
X164250142Y-79073142D01*
X164154904Y-79120761D01*
X163869190Y-79120761D01*
X163773952Y-79073142D01*
X163726333Y-79025523D01*
X163678714Y-78930285D01*
X163678714Y-78739809D01*
X163726333Y-78644571D01*
X164345380Y-77406476D02*
X163345380Y-77406476D01*
X164345380Y-76835047D02*
X163773952Y-77263619D01*
X163345380Y-76835047D02*
X163916809Y-77406476D01*
X164345380Y-75977904D02*
X163821571Y-75977904D01*
X163726333Y-76025523D01*
X163678714Y-76120761D01*
X163678714Y-76311238D01*
X163726333Y-76406476D01*
X164297761Y-75977904D02*
X164345380Y-76073142D01*
X164345380Y-76311238D01*
X164297761Y-76406476D01*
X164202523Y-76454095D01*
X164107285Y-76454095D01*
X164012047Y-76406476D01*
X163964428Y-76311238D01*
X163964428Y-76073142D01*
X163916809Y-75977904D01*
X163678714Y-75644571D02*
X163678714Y-75263619D01*
X163345380Y-75501714D02*
X164202523Y-75501714D01*
X164297761Y-75454095D01*
X164345380Y-75358857D01*
X164345380Y-75263619D01*
X164345380Y-74930285D02*
X163345380Y-74930285D01*
X164345380Y-74501714D02*
X163821571Y-74501714D01*
X163726333Y-74549333D01*
X163678714Y-74644571D01*
X163678714Y-74787428D01*
X163726333Y-74882666D01*
X163773952Y-74930285D01*
X164297761Y-73644571D02*
X164345380Y-73739809D01*
X164345380Y-73930285D01*
X164297761Y-74025523D01*
X164202523Y-74073142D01*
X163821571Y-74073142D01*
X163726333Y-74025523D01*
X163678714Y-73930285D01*
X163678714Y-73739809D01*
X163726333Y-73644571D01*
X163821571Y-73596952D01*
X163916809Y-73596952D01*
X164012047Y-74073142D01*
X164345380Y-73168380D02*
X163678714Y-73168380D01*
X163869190Y-73168380D02*
X163773952Y-73120761D01*
X163726333Y-73073142D01*
X163678714Y-72977904D01*
X163678714Y-72882666D01*
X164345380Y-72549333D02*
X163678714Y-72549333D01*
X163345380Y-72549333D02*
X163393000Y-72596952D01*
X163440619Y-72549333D01*
X163393000Y-72501714D01*
X163345380Y-72549333D01*
X163440619Y-72549333D01*
X163678714Y-72073142D02*
X164345380Y-72073142D01*
X163773952Y-72073142D02*
X163726333Y-72025523D01*
X163678714Y-71930285D01*
X163678714Y-71787428D01*
X163726333Y-71692190D01*
X163821571Y-71644571D01*
X164345380Y-71644571D01*
X164297761Y-70787428D02*
X164345380Y-70882666D01*
X164345380Y-71073142D01*
X164297761Y-71168380D01*
X164202523Y-71216000D01*
X163821571Y-71216000D01*
X163726333Y-71168380D01*
X163678714Y-71073142D01*
X163678714Y-70882666D01*
X163726333Y-70787428D01*
X163821571Y-70739809D01*
X163916809Y-70739809D01*
X164012047Y-71216000D01*
X164297761Y-69596952D02*
X164345380Y-69454095D01*
X164345380Y-69216000D01*
X164297761Y-69120761D01*
X164250142Y-69073142D01*
X164154904Y-69025523D01*
X164059666Y-69025523D01*
X163964428Y-69073142D01*
X163916809Y-69120761D01*
X163869190Y-69216000D01*
X163821571Y-69406476D01*
X163773952Y-69501714D01*
X163726333Y-69549333D01*
X163631095Y-69596952D01*
X163535857Y-69596952D01*
X163440619Y-69549333D01*
X163393000Y-69501714D01*
X163345380Y-69406476D01*
X163345380Y-69168380D01*
X163393000Y-69025523D01*
X163678714Y-68739809D02*
X163678714Y-68358857D01*
X163345380Y-68596952D02*
X164202523Y-68596952D01*
X164297761Y-68549333D01*
X164345380Y-68454095D01*
X164345380Y-68358857D01*
X164345380Y-67596952D02*
X163821571Y-67596952D01*
X163726333Y-67644571D01*
X163678714Y-67739809D01*
X163678714Y-67930285D01*
X163726333Y-68025523D01*
X164297761Y-67596952D02*
X164345380Y-67692190D01*
X164345380Y-67930285D01*
X164297761Y-68025523D01*
X164202523Y-68073142D01*
X164107285Y-68073142D01*
X164012047Y-68025523D01*
X163964428Y-67930285D01*
X163964428Y-67692190D01*
X163916809Y-67596952D01*
X164345380Y-67120761D02*
X163678714Y-67120761D01*
X163869190Y-67120761D02*
X163773952Y-67073142D01*
X163726333Y-67025523D01*
X163678714Y-66930285D01*
X163678714Y-66835047D01*
X164345380Y-66501714D02*
X163345380Y-66501714D01*
X163964428Y-66406476D02*
X164345380Y-66120761D01*
X163678714Y-66120761D02*
X164059666Y-66501714D01*
X167645380Y-88287428D02*
X166645380Y-88287428D01*
X166645380Y-87906476D01*
X166693000Y-87811238D01*
X166740619Y-87763619D01*
X166835857Y-87716000D01*
X166978714Y-87716000D01*
X167073952Y-87763619D01*
X167121571Y-87811238D01*
X167169190Y-87906476D01*
X167169190Y-88287428D01*
X167550142Y-86716000D02*
X167597761Y-86763619D01*
X167645380Y-86906476D01*
X167645380Y-87001714D01*
X167597761Y-87144571D01*
X167502523Y-87239809D01*
X167407285Y-87287428D01*
X167216809Y-87335047D01*
X167073952Y-87335047D01*
X166883476Y-87287428D01*
X166788238Y-87239809D01*
X166693000Y-87144571D01*
X166645380Y-87001714D01*
X166645380Y-86906476D01*
X166693000Y-86763619D01*
X166740619Y-86716000D01*
X167121571Y-85954095D02*
X167169190Y-85811238D01*
X167216809Y-85763619D01*
X167312047Y-85716000D01*
X167454904Y-85716000D01*
X167550142Y-85763619D01*
X167597761Y-85811238D01*
X167645380Y-85906476D01*
X167645380Y-86287428D01*
X166645380Y-86287428D01*
X166645380Y-85954095D01*
X166693000Y-85858857D01*
X166740619Y-85811238D01*
X166835857Y-85763619D01*
X166931095Y-85763619D01*
X167026333Y-85811238D01*
X167073952Y-85858857D01*
X167121571Y-85954095D01*
X167121571Y-86287428D01*
X167645380Y-84096952D02*
X166645380Y-84096952D01*
X167597761Y-84096952D02*
X167645380Y-84192190D01*
X167645380Y-84382666D01*
X167597761Y-84477904D01*
X167550142Y-84525523D01*
X167454904Y-84573142D01*
X167169190Y-84573142D01*
X167073952Y-84525523D01*
X167026333Y-84477904D01*
X166978714Y-84382666D01*
X166978714Y-84192190D01*
X167026333Y-84096952D01*
X167597761Y-83239809D02*
X167645380Y-83335047D01*
X167645380Y-83525523D01*
X167597761Y-83620761D01*
X167502523Y-83668380D01*
X167121571Y-83668380D01*
X167026333Y-83620761D01*
X166978714Y-83525523D01*
X166978714Y-83335047D01*
X167026333Y-83239809D01*
X167121571Y-83192190D01*
X167216809Y-83192190D01*
X167312047Y-83668380D01*
X167597761Y-82811238D02*
X167645380Y-82716000D01*
X167645380Y-82525523D01*
X167597761Y-82430285D01*
X167502523Y-82382666D01*
X167454904Y-82382666D01*
X167359666Y-82430285D01*
X167312047Y-82525523D01*
X167312047Y-82668380D01*
X167264428Y-82763619D01*
X167169190Y-82811238D01*
X167121571Y-82811238D01*
X167026333Y-82763619D01*
X166978714Y-82668380D01*
X166978714Y-82525523D01*
X167026333Y-82430285D01*
X167645380Y-81954095D02*
X166978714Y-81954095D01*
X166645380Y-81954095D02*
X166693000Y-82001714D01*
X166740619Y-81954095D01*
X166693000Y-81906476D01*
X166645380Y-81954095D01*
X166740619Y-81954095D01*
X166978714Y-81049333D02*
X167788238Y-81049333D01*
X167883476Y-81096952D01*
X167931095Y-81144571D01*
X167978714Y-81239809D01*
X167978714Y-81382666D01*
X167931095Y-81477904D01*
X167597761Y-81049333D02*
X167645380Y-81144571D01*
X167645380Y-81335047D01*
X167597761Y-81430285D01*
X167550142Y-81477904D01*
X167454904Y-81525523D01*
X167169190Y-81525523D01*
X167073952Y-81477904D01*
X167026333Y-81430285D01*
X166978714Y-81335047D01*
X166978714Y-81144571D01*
X167026333Y-81049333D01*
X166978714Y-80573142D02*
X167645380Y-80573142D01*
X167073952Y-80573142D02*
X167026333Y-80525523D01*
X166978714Y-80430285D01*
X166978714Y-80287428D01*
X167026333Y-80192190D01*
X167121571Y-80144571D01*
X167645380Y-80144571D01*
X167645380Y-78906476D02*
X166645380Y-78906476D01*
X167026333Y-78906476D02*
X166978714Y-78811238D01*
X166978714Y-78620761D01*
X167026333Y-78525523D01*
X167073952Y-78477904D01*
X167169190Y-78430285D01*
X167454904Y-78430285D01*
X167550142Y-78477904D01*
X167597761Y-78525523D01*
X167645380Y-78620761D01*
X167645380Y-78811238D01*
X167597761Y-78906476D01*
X166978714Y-78096952D02*
X167645380Y-77858857D01*
X166978714Y-77620761D02*
X167645380Y-77858857D01*
X167883476Y-77954095D01*
X167931095Y-78001714D01*
X167978714Y-78096952D01*
X167550142Y-75906476D02*
X167597761Y-75954095D01*
X167645380Y-76096952D01*
X167645380Y-76192190D01*
X167597761Y-76335047D01*
X167502523Y-76430285D01*
X167407285Y-76477904D01*
X167216809Y-76525523D01*
X167073952Y-76525523D01*
X166883476Y-76477904D01*
X166788238Y-76430285D01*
X166693000Y-76335047D01*
X166645380Y-76192190D01*
X166645380Y-76096952D01*
X166693000Y-75954095D01*
X166740619Y-75906476D01*
X167645380Y-75477904D02*
X166645380Y-75477904D01*
X167645380Y-75049333D02*
X167121571Y-75049333D01*
X167026333Y-75096952D01*
X166978714Y-75192190D01*
X166978714Y-75335047D01*
X167026333Y-75430285D01*
X167073952Y-75477904D01*
X167645380Y-74573142D02*
X166978714Y-74573142D01*
X167169190Y-74573142D02*
X167073952Y-74525523D01*
X167026333Y-74477904D01*
X166978714Y-74382666D01*
X166978714Y-74287428D01*
X167645380Y-73954095D02*
X166978714Y-73954095D01*
X166645380Y-73954095D02*
X166693000Y-74001714D01*
X166740619Y-73954095D01*
X166693000Y-73906476D01*
X166645380Y-73954095D01*
X166740619Y-73954095D01*
X167597761Y-73525523D02*
X167645380Y-73430285D01*
X167645380Y-73239809D01*
X167597761Y-73144571D01*
X167502523Y-73096952D01*
X167454904Y-73096952D01*
X167359666Y-73144571D01*
X167312047Y-73239809D01*
X167312047Y-73382666D01*
X167264428Y-73477904D01*
X167169190Y-73525523D01*
X167121571Y-73525523D01*
X167026333Y-73477904D01*
X166978714Y-73382666D01*
X166978714Y-73239809D01*
X167026333Y-73144571D01*
X166645380Y-72049333D02*
X166645380Y-71477904D01*
X167645380Y-71763619D02*
X166645380Y-71763619D01*
X167597761Y-70763619D02*
X167645380Y-70858857D01*
X167645380Y-71049333D01*
X167597761Y-71144571D01*
X167502523Y-71192190D01*
X167121571Y-71192190D01*
X167026333Y-71144571D01*
X166978714Y-71049333D01*
X166978714Y-70858857D01*
X167026333Y-70763619D01*
X167121571Y-70716000D01*
X167216809Y-70716000D01*
X167312047Y-71192190D01*
X167645380Y-70287428D02*
X166978714Y-70287428D01*
X167169190Y-70287428D02*
X167073952Y-70239809D01*
X167026333Y-70192190D01*
X166978714Y-70096952D01*
X166978714Y-70001714D01*
X167597761Y-69716000D02*
X167645380Y-69620761D01*
X167645380Y-69430285D01*
X167597761Y-69335047D01*
X167502523Y-69287428D01*
X167454904Y-69287428D01*
X167359666Y-69335047D01*
X167312047Y-69430285D01*
X167312047Y-69573142D01*
X167264428Y-69668380D01*
X167169190Y-69716000D01*
X167121571Y-69716000D01*
X167026333Y-69668380D01*
X166978714Y-69573142D01*
X166978714Y-69430285D01*
X167026333Y-69335047D01*
X166978714Y-69001714D02*
X166978714Y-68620761D01*
X166645380Y-68858857D02*
X167502523Y-68858857D01*
X167597761Y-68811238D01*
X167645380Y-68716000D01*
X167645380Y-68620761D01*
X167597761Y-67906476D02*
X167645380Y-68001714D01*
X167645380Y-68192190D01*
X167597761Y-68287428D01*
X167502523Y-68335047D01*
X167121571Y-68335047D01*
X167026333Y-68287428D01*
X166978714Y-68192190D01*
X166978714Y-68001714D01*
X167026333Y-67906476D01*
X167121571Y-67858857D01*
X167216809Y-67858857D01*
X167312047Y-68335047D01*
X167597761Y-67049333D02*
X167645380Y-67144571D01*
X167645380Y-67335047D01*
X167597761Y-67430285D01*
X167502523Y-67477904D01*
X167121571Y-67477904D01*
X167026333Y-67430285D01*
X166978714Y-67335047D01*
X166978714Y-67144571D01*
X167026333Y-67049333D01*
X167121571Y-67001714D01*
X167216809Y-67001714D01*
X167312047Y-67477904D01*
X166978714Y-66144571D02*
X167788238Y-66144571D01*
X167883476Y-66192190D01*
X167931095Y-66239809D01*
X167978714Y-66335047D01*
X167978714Y-66477904D01*
X167931095Y-66573142D01*
X167597761Y-66144571D02*
X167645380Y-66239809D01*
X167645380Y-66430285D01*
X167597761Y-66525523D01*
X167550142Y-66573142D01*
X167454904Y-66620761D01*
X167169190Y-66620761D01*
X167073952Y-66573142D01*
X167026333Y-66525523D01*
X166978714Y-66430285D01*
X166978714Y-66239809D01*
X167026333Y-66144571D01*
X132152380Y-66746190D02*
X131152380Y-66746190D01*
X131152380Y-66365238D01*
X131200000Y-66270000D01*
X131247619Y-66222380D01*
X131342857Y-66174761D01*
X131485714Y-66174761D01*
X131580952Y-66222380D01*
X131628571Y-66270000D01*
X131676190Y-66365238D01*
X131676190Y-66746190D01*
X132152380Y-65603333D02*
X132104761Y-65698571D01*
X132057142Y-65746190D01*
X131961904Y-65793809D01*
X131676190Y-65793809D01*
X131580952Y-65746190D01*
X131533333Y-65698571D01*
X131485714Y-65603333D01*
X131485714Y-65460476D01*
X131533333Y-65365238D01*
X131580952Y-65317619D01*
X131676190Y-65270000D01*
X131961904Y-65270000D01*
X132057142Y-65317619D01*
X132104761Y-65365238D01*
X132152380Y-65460476D01*
X132152380Y-65603333D01*
X131485714Y-64936666D02*
X132152380Y-64746190D01*
X131676190Y-64555714D01*
X132152380Y-64365238D01*
X131485714Y-64174761D01*
X132104761Y-63412857D02*
X132152380Y-63508095D01*
X132152380Y-63698571D01*
X132104761Y-63793809D01*
X132009523Y-63841428D01*
X131628571Y-63841428D01*
X131533333Y-63793809D01*
X131485714Y-63698571D01*
X131485714Y-63508095D01*
X131533333Y-63412857D01*
X131628571Y-63365238D01*
X131723809Y-63365238D01*
X131819047Y-63841428D01*
X132152380Y-62936666D02*
X131485714Y-62936666D01*
X131676190Y-62936666D02*
X131580952Y-62889047D01*
X131533333Y-62841428D01*
X131485714Y-62746190D01*
X131485714Y-62650952D01*
X133135714Y-66389047D02*
X133135714Y-66008095D01*
X133802380Y-66246190D02*
X132945238Y-66246190D01*
X132850000Y-66198571D01*
X132802380Y-66103333D01*
X132802380Y-66008095D01*
X133802380Y-65674761D02*
X133135714Y-65674761D01*
X133326190Y-65674761D02*
X133230952Y-65627142D01*
X133183333Y-65579523D01*
X133135714Y-65484285D01*
X133135714Y-65389047D01*
X133802380Y-64912857D02*
X133754761Y-65008095D01*
X133707142Y-65055714D01*
X133611904Y-65103333D01*
X133326190Y-65103333D01*
X133230952Y-65055714D01*
X133183333Y-65008095D01*
X133135714Y-64912857D01*
X133135714Y-64770000D01*
X133183333Y-64674761D01*
X133230952Y-64627142D01*
X133326190Y-64579523D01*
X133611904Y-64579523D01*
X133707142Y-64627142D01*
X133754761Y-64674761D01*
X133802380Y-64770000D01*
X133802380Y-64912857D01*
X133802380Y-64150952D02*
X133135714Y-64150952D01*
X133230952Y-64150952D02*
X133183333Y-64103333D01*
X133135714Y-64008095D01*
X133135714Y-63865238D01*
X133183333Y-63770000D01*
X133278571Y-63722380D01*
X133802380Y-63722380D01*
X133278571Y-63722380D02*
X133183333Y-63674761D01*
X133135714Y-63579523D01*
X133135714Y-63436666D01*
X133183333Y-63341428D01*
X133278571Y-63293809D01*
X133802380Y-63293809D01*
X135166666Y-66603333D02*
X135166666Y-66127142D01*
X135452380Y-66698571D02*
X134452380Y-66365238D01*
X135452380Y-66031904D01*
X134785714Y-65698571D02*
X135785714Y-65698571D01*
X134833333Y-65698571D02*
X134785714Y-65603333D01*
X134785714Y-65412857D01*
X134833333Y-65317619D01*
X134880952Y-65270000D01*
X134976190Y-65222380D01*
X135261904Y-65222380D01*
X135357142Y-65270000D01*
X135404761Y-65317619D01*
X135452380Y-65412857D01*
X135452380Y-65603333D01*
X135404761Y-65698571D01*
X134785714Y-64793809D02*
X135785714Y-64793809D01*
X134833333Y-64793809D02*
X134785714Y-64698571D01*
X134785714Y-64508095D01*
X134833333Y-64412857D01*
X134880952Y-64365238D01*
X134976190Y-64317619D01*
X135261904Y-64317619D01*
X135357142Y-64365238D01*
X135404761Y-64412857D01*
X135452380Y-64508095D01*
X135452380Y-64698571D01*
X135404761Y-64793809D01*
X135452380Y-63746190D02*
X135404761Y-63841428D01*
X135309523Y-63889047D01*
X134452380Y-63889047D01*
X135404761Y-62984285D02*
X135452380Y-63079523D01*
X135452380Y-63270000D01*
X135404761Y-63365238D01*
X135309523Y-63412857D01*
X134928571Y-63412857D01*
X134833333Y-63365238D01*
X134785714Y-63270000D01*
X134785714Y-63079523D01*
X134833333Y-62984285D01*
X134928571Y-62936666D01*
X135023809Y-62936666D01*
X135119047Y-63412857D01*
D12*
%TO.C,MOD1*%
X150310000Y-61018000D02*
X150310000Y-102768000D01*
X174310000Y-61018000D02*
X150310000Y-61018000D01*
X174310000Y-102768000D02*
X174310000Y-61018000D01*
X150310000Y-102768000D02*
X174310000Y-102768000D01*
X157230000Y-98268000D02*
X157230000Y-101268000D01*
X154860000Y-101268000D02*
X154860000Y-98268000D01*
X169760000Y-101268000D02*
X154860000Y-101268000D01*
X169760000Y-98268000D02*
X169760000Y-101268000D01*
X154860000Y-98268000D02*
X169760000Y-98268000D01*
%TO.C,R6*%
X157580000Y-107220000D02*
X157250000Y-107220000D01*
X157580000Y-113760000D02*
X157580000Y-107220000D01*
X157250000Y-113760000D02*
X157580000Y-113760000D01*
X154840000Y-107220000D02*
X155170000Y-107220000D01*
X154840000Y-113760000D02*
X154840000Y-107220000D01*
X155170000Y-113760000D02*
X154840000Y-113760000D01*
%TO.C,R5*%
X161390000Y-107220000D02*
X161060000Y-107220000D01*
X161390000Y-113760000D02*
X161390000Y-107220000D01*
X161060000Y-113760000D02*
X161390000Y-113760000D01*
X158650000Y-107220000D02*
X158980000Y-107220000D01*
X158650000Y-113760000D02*
X158650000Y-107220000D01*
X158980000Y-113760000D02*
X158650000Y-113760000D01*
%TO.C,R4*%
X165200000Y-107220000D02*
X164870000Y-107220000D01*
X165200000Y-113760000D02*
X165200000Y-107220000D01*
X164870000Y-113760000D02*
X165200000Y-113760000D01*
X162460000Y-107220000D02*
X162790000Y-107220000D01*
X162460000Y-113760000D02*
X162460000Y-107220000D01*
X162790000Y-113760000D02*
X162460000Y-113760000D01*
%TO.C,R3*%
X169010000Y-107220000D02*
X168680000Y-107220000D01*
X169010000Y-113760000D02*
X169010000Y-107220000D01*
X168680000Y-113760000D02*
X169010000Y-113760000D01*
X166270000Y-107220000D02*
X166600000Y-107220000D01*
X166270000Y-113760000D02*
X166270000Y-107220000D01*
X166600000Y-113760000D02*
X166270000Y-113760000D01*
%TO.C,J2*%
X121920000Y-100330000D02*
X120650000Y-100330000D01*
X121920000Y-99060000D02*
X121920000Y-100330000D01*
X119607071Y-78360000D02*
X119210000Y-78360000D01*
X119607071Y-79120000D02*
X119210000Y-79120000D01*
X110550000Y-78360000D02*
X116550000Y-78360000D01*
X110550000Y-79120000D02*
X110550000Y-78360000D01*
X116550000Y-79120000D02*
X110550000Y-79120000D01*
X119210000Y-80010000D02*
X116550000Y-80010000D01*
X119607071Y-80900000D02*
X119210000Y-80900000D01*
X119607071Y-81660000D02*
X119210000Y-81660000D01*
X110550000Y-80900000D02*
X116550000Y-80900000D01*
X110550000Y-81660000D02*
X110550000Y-80900000D01*
X116550000Y-81660000D02*
X110550000Y-81660000D01*
X119210000Y-82550000D02*
X116550000Y-82550000D01*
X119607071Y-83440000D02*
X119210000Y-83440000D01*
X119607071Y-84200000D02*
X119210000Y-84200000D01*
X110550000Y-83440000D02*
X116550000Y-83440000D01*
X110550000Y-84200000D02*
X110550000Y-83440000D01*
X116550000Y-84200000D02*
X110550000Y-84200000D01*
X119210000Y-85090000D02*
X116550000Y-85090000D01*
X119607071Y-85980000D02*
X119210000Y-85980000D01*
X119607071Y-86740000D02*
X119210000Y-86740000D01*
X110550000Y-85980000D02*
X116550000Y-85980000D01*
X110550000Y-86740000D02*
X110550000Y-85980000D01*
X116550000Y-86740000D02*
X110550000Y-86740000D01*
X119210000Y-87630000D02*
X116550000Y-87630000D01*
X119607071Y-88520000D02*
X119210000Y-88520000D01*
X119607071Y-89280000D02*
X119210000Y-89280000D01*
X110550000Y-88520000D02*
X116550000Y-88520000D01*
X110550000Y-89280000D02*
X110550000Y-88520000D01*
X116550000Y-89280000D02*
X110550000Y-89280000D01*
X119210000Y-90170000D02*
X116550000Y-90170000D01*
X119607071Y-91060000D02*
X119210000Y-91060000D01*
X119607071Y-91820000D02*
X119210000Y-91820000D01*
X110550000Y-91060000D02*
X116550000Y-91060000D01*
X110550000Y-91820000D02*
X110550000Y-91060000D01*
X116550000Y-91820000D02*
X110550000Y-91820000D01*
X119210000Y-92710000D02*
X116550000Y-92710000D01*
X119607071Y-93600000D02*
X119210000Y-93600000D01*
X119607071Y-94360000D02*
X119210000Y-94360000D01*
X110550000Y-93600000D02*
X116550000Y-93600000D01*
X110550000Y-94360000D02*
X110550000Y-93600000D01*
X116550000Y-94360000D02*
X110550000Y-94360000D01*
X119210000Y-95250000D02*
X116550000Y-95250000D01*
X119607071Y-96140000D02*
X119210000Y-96140000D01*
X119607071Y-96900000D02*
X119210000Y-96900000D01*
X110550000Y-96140000D02*
X116550000Y-96140000D01*
X110550000Y-96900000D02*
X110550000Y-96140000D01*
X116550000Y-96900000D02*
X110550000Y-96900000D01*
X119210000Y-97790000D02*
X116550000Y-97790000D01*
X119540000Y-98680000D02*
X119210000Y-98680000D01*
X119540000Y-99440000D02*
X119210000Y-99440000D01*
X116550000Y-98780000D02*
X110550000Y-98780000D01*
X116550000Y-98900000D02*
X110550000Y-98900000D01*
X116550000Y-99020000D02*
X110550000Y-99020000D01*
X116550000Y-99140000D02*
X110550000Y-99140000D01*
X116550000Y-99260000D02*
X110550000Y-99260000D01*
X116550000Y-99380000D02*
X110550000Y-99380000D01*
X110550000Y-98680000D02*
X116550000Y-98680000D01*
X110550000Y-99440000D02*
X110550000Y-98680000D01*
X116550000Y-99440000D02*
X110550000Y-99440000D01*
X116550000Y-100390000D02*
X119210000Y-100390000D01*
X116550000Y-77410000D02*
X116550000Y-100390000D01*
X119210000Y-77410000D02*
X116550000Y-77410000D01*
X119210000Y-100390000D02*
X119210000Y-77410000D01*
%TO.C,D5*%
X180065000Y-81300000D02*
X183155000Y-81300000D01*
X184110000Y-78740000D02*
G75*
G03*
X184110000Y-78740000I-2500000J0D01*
G01*
X181609538Y-75750000D02*
G75*
G02*
X183154830Y-81300000I462J-2990000D01*
G01*
X181610462Y-75750000D02*
G75*
G03*
X180065170Y-81300000I-462J-2990000D01*
G01*
%TO.C,D4*%
X180065000Y-91460000D02*
X183155000Y-91460000D01*
X184110000Y-88900000D02*
G75*
G03*
X184110000Y-88900000I-2500000J0D01*
G01*
X181609538Y-85910000D02*
G75*
G02*
X183154830Y-91460000I462J-2990000D01*
G01*
X181610462Y-85910000D02*
G75*
G03*
X180065170Y-91460000I-462J-2990000D01*
G01*
%TO.C,D3*%
X180065000Y-99080000D02*
X183155000Y-99080000D01*
X184110000Y-96520000D02*
G75*
G03*
X184110000Y-96520000I-2500000J0D01*
G01*
X181609538Y-93530000D02*
G75*
G02*
X183154830Y-99080000I462J-2990000D01*
G01*
X181610462Y-93530000D02*
G75*
G03*
X180065170Y-99080000I-462J-2990000D01*
G01*
%TO.C,D2*%
X180065000Y-106700000D02*
X183155000Y-106700000D01*
X184110000Y-104140000D02*
G75*
G03*
X184110000Y-104140000I-2500000J0D01*
G01*
X181609538Y-101150000D02*
G75*
G02*
X183154830Y-106700000I462J-2990000D01*
G01*
X181610462Y-101150000D02*
G75*
G03*
X180065170Y-106700000I-462J-2990000D01*
G01*
%TO.C,C1*%
X143460199Y-63375000D02*
X143460199Y-63775000D01*
X143260199Y-63575000D02*
X143660199Y-63575000D01*
X147611000Y-64400000D02*
X147611000Y-65140000D01*
X147571000Y-64233000D02*
X147571000Y-65307000D01*
X147531000Y-64106000D02*
X147531000Y-65434000D01*
X147491000Y-64002000D02*
X147491000Y-65538000D01*
X147451000Y-63911000D02*
X147451000Y-65629000D01*
X147411000Y-63830000D02*
X147411000Y-65710000D01*
X147371000Y-63757000D02*
X147371000Y-65783000D01*
X147331000Y-63690000D02*
X147331000Y-65850000D01*
X147291000Y-63628000D02*
X147291000Y-65912000D01*
X147251000Y-63570000D02*
X147251000Y-65970000D01*
X147211000Y-63516000D02*
X147211000Y-66024000D01*
X147171000Y-63466000D02*
X147171000Y-66074000D01*
X147131000Y-63419000D02*
X147131000Y-66121000D01*
X147091000Y-65610000D02*
X147091000Y-66166000D01*
X147091000Y-63374000D02*
X147091000Y-63930000D01*
X147051000Y-65610000D02*
X147051000Y-66208000D01*
X147051000Y-63332000D02*
X147051000Y-63930000D01*
X147011000Y-65610000D02*
X147011000Y-66248000D01*
X147011000Y-63292000D02*
X147011000Y-63930000D01*
X146971000Y-65610000D02*
X146971000Y-66286000D01*
X146971000Y-63254000D02*
X146971000Y-63930000D01*
X146931000Y-65610000D02*
X146931000Y-66322000D01*
X146931000Y-63218000D02*
X146931000Y-63930000D01*
X146891000Y-65610000D02*
X146891000Y-66357000D01*
X146891000Y-63183000D02*
X146891000Y-63930000D01*
X146851000Y-65610000D02*
X146851000Y-66389000D01*
X146851000Y-63151000D02*
X146851000Y-63930000D01*
X146811000Y-65610000D02*
X146811000Y-66420000D01*
X146811000Y-63120000D02*
X146811000Y-63930000D01*
X146771000Y-65610000D02*
X146771000Y-66450000D01*
X146771000Y-63090000D02*
X146771000Y-63930000D01*
X146731000Y-65610000D02*
X146731000Y-66478000D01*
X146731000Y-63062000D02*
X146731000Y-63930000D01*
X146691000Y-65610000D02*
X146691000Y-66505000D01*
X146691000Y-63035000D02*
X146691000Y-63930000D01*
X146651000Y-65610000D02*
X146651000Y-66530000D01*
X146651000Y-63010000D02*
X146651000Y-63930000D01*
X146611000Y-65610000D02*
X146611000Y-66555000D01*
X146611000Y-62985000D02*
X146611000Y-63930000D01*
X146571000Y-65610000D02*
X146571000Y-66578000D01*
X146571000Y-62962000D02*
X146571000Y-63930000D01*
X146531000Y-65610000D02*
X146531000Y-66600000D01*
X146531000Y-62940000D02*
X146531000Y-63930000D01*
X146491000Y-65610000D02*
X146491000Y-66621000D01*
X146491000Y-62919000D02*
X146491000Y-63930000D01*
X146451000Y-65610000D02*
X146451000Y-66640000D01*
X146451000Y-62900000D02*
X146451000Y-63930000D01*
X146411000Y-65610000D02*
X146411000Y-66659000D01*
X146411000Y-62881000D02*
X146411000Y-63930000D01*
X146371000Y-65610000D02*
X146371000Y-66677000D01*
X146371000Y-62863000D02*
X146371000Y-63930000D01*
X146331000Y-65610000D02*
X146331000Y-66694000D01*
X146331000Y-62846000D02*
X146331000Y-63930000D01*
X146291000Y-65610000D02*
X146291000Y-66710000D01*
X146291000Y-62830000D02*
X146291000Y-63930000D01*
X146251000Y-65610000D02*
X146251000Y-66724000D01*
X146251000Y-62816000D02*
X146251000Y-63930000D01*
X146210000Y-65610000D02*
X146210000Y-66738000D01*
X146210000Y-62802000D02*
X146210000Y-63930000D01*
X146170000Y-65610000D02*
X146170000Y-66752000D01*
X146170000Y-62788000D02*
X146170000Y-63930000D01*
X146130000Y-65610000D02*
X146130000Y-66764000D01*
X146130000Y-62776000D02*
X146130000Y-63930000D01*
X146090000Y-65610000D02*
X146090000Y-66775000D01*
X146090000Y-62765000D02*
X146090000Y-63930000D01*
X146050000Y-65610000D02*
X146050000Y-66786000D01*
X146050000Y-62754000D02*
X146050000Y-63930000D01*
X146010000Y-65610000D02*
X146010000Y-66795000D01*
X146010000Y-62745000D02*
X146010000Y-63930000D01*
X145970000Y-65610000D02*
X145970000Y-66804000D01*
X145970000Y-62736000D02*
X145970000Y-63930000D01*
X145930000Y-65610000D02*
X145930000Y-66812000D01*
X145930000Y-62728000D02*
X145930000Y-63930000D01*
X145890000Y-65610000D02*
X145890000Y-66820000D01*
X145890000Y-62720000D02*
X145890000Y-63930000D01*
X145850000Y-65610000D02*
X145850000Y-66826000D01*
X145850000Y-62714000D02*
X145850000Y-63930000D01*
X145810000Y-65610000D02*
X145810000Y-66832000D01*
X145810000Y-62708000D02*
X145810000Y-63930000D01*
X145770000Y-65610000D02*
X145770000Y-66837000D01*
X145770000Y-62703000D02*
X145770000Y-63930000D01*
X145730000Y-65610000D02*
X145730000Y-66841000D01*
X145730000Y-62699000D02*
X145730000Y-63930000D01*
X145690000Y-65610000D02*
X145690000Y-66844000D01*
X145690000Y-62696000D02*
X145690000Y-63930000D01*
X145650000Y-65610000D02*
X145650000Y-66847000D01*
X145650000Y-62693000D02*
X145650000Y-63930000D01*
X145610000Y-62691000D02*
X145610000Y-63930000D01*
X145610000Y-65610000D02*
X145610000Y-66849000D01*
X145570000Y-62690000D02*
X145570000Y-63930000D01*
X145570000Y-65610000D02*
X145570000Y-66850000D01*
X145530000Y-62690000D02*
X145530000Y-63930000D01*
X145530000Y-65610000D02*
X145530000Y-66850000D01*
X147650000Y-64770000D02*
G75*
G03*
X147650000Y-64770000I-2120000J0D01*
G01*
%TO.C,A1*%
X148720000Y-69720000D02*
X130680000Y-69720000D01*
X148720000Y-113160000D02*
X148720000Y-69720000D01*
X130680000Y-113160000D02*
X148720000Y-113160000D01*
X133350000Y-110490000D02*
X130680000Y-110490000D01*
X133350000Y-74930000D02*
X133350000Y-110490000D01*
X133350000Y-74930000D02*
X130680000Y-74930000D01*
X146050000Y-110490000D02*
X148720000Y-110490000D01*
X146050000Y-72390000D02*
X146050000Y-110490000D01*
X146050000Y-72390000D02*
X148720000Y-72390000D01*
X130680000Y-69720000D02*
X130680000Y-72390000D01*
X130680000Y-74930000D02*
X130680000Y-113160000D01*
X133350000Y-72390000D02*
X130680000Y-72390000D01*
X133350000Y-74930000D02*
X133350000Y-72390000D01*
%TO.C,SW1*%
X180234000Y-64750000D02*
X182914000Y-64750000D01*
X182914000Y-70990000D02*
X180234000Y-70990000D01*
X178454000Y-70840000D02*
X178454000Y-64900000D01*
X184694000Y-70840000D02*
X184694000Y-64900000D01*
X182988214Y-67870000D02*
G75*
G03*
X182988214Y-67870000I-1414214J0D01*
G01*
%TO.C,R2*%
X172820000Y-107220000D02*
X172490000Y-107220000D01*
X172820000Y-113760000D02*
X172820000Y-107220000D01*
X172490000Y-113760000D02*
X172820000Y-113760000D01*
X170080000Y-107220000D02*
X170410000Y-107220000D01*
X170080000Y-113760000D02*
X170080000Y-107220000D01*
X170410000Y-113760000D02*
X170080000Y-113760000D01*
%TO.C,R1*%
X151030000Y-113760000D02*
X151360000Y-113760000D01*
X151030000Y-107220000D02*
X151030000Y-113760000D01*
X151360000Y-107220000D02*
X151030000Y-107220000D01*
X153770000Y-113760000D02*
X153440000Y-113760000D01*
X153770000Y-107220000D02*
X153770000Y-113760000D01*
X153440000Y-107220000D02*
X153770000Y-107220000D01*
%TO.C,JP1*%
X139760000Y-67624000D02*
X138430000Y-67624000D01*
X139760000Y-66294000D02*
X139760000Y-67624000D01*
X139760000Y-65024000D02*
X137100000Y-65024000D01*
X137100000Y-65024000D02*
X137100000Y-62424000D01*
X139760000Y-65024000D02*
X139760000Y-62424000D01*
X139760000Y-62424000D02*
X137100000Y-62424000D01*
%TO.C,J1*%
X129321325Y-105410000D02*
X129754338Y-105160000D01*
X129754338Y-105660000D02*
X129321325Y-105410000D01*
X129754338Y-105160000D02*
X129754338Y-105660000D01*
X128860000Y-115400000D02*
X116520000Y-115400000D01*
X128860000Y-62180000D02*
X128860000Y-115400000D01*
X116520000Y-62180000D02*
X128860000Y-62180000D01*
%TO.C,D1*%
X180065000Y-114320000D02*
X183155000Y-114320000D01*
X184110000Y-111760000D02*
G75*
G03*
X184110000Y-111760000I-2500000J0D01*
G01*
X181609538Y-108770000D02*
G75*
G02*
X183154830Y-114320000I462J-2990000D01*
G01*
X181610462Y-108770000D02*
G75*
G03*
X180065170Y-114320000I-462J-2990000D01*
G01*
%TO.C,MOD1*%
D11*
X160476666Y-92908380D02*
X160476666Y-91908380D01*
X160810000Y-92622666D01*
X161143333Y-91908380D01*
X161143333Y-92908380D01*
X161810000Y-91908380D02*
X162000476Y-91908380D01*
X162095714Y-91956000D01*
X162190952Y-92051238D01*
X162238571Y-92241714D01*
X162238571Y-92575047D01*
X162190952Y-92765523D01*
X162095714Y-92860761D01*
X162000476Y-92908380D01*
X161810000Y-92908380D01*
X161714761Y-92860761D01*
X161619523Y-92765523D01*
X161571904Y-92575047D01*
X161571904Y-92241714D01*
X161619523Y-92051238D01*
X161714761Y-91956000D01*
X161810000Y-91908380D01*
X162667142Y-92908380D02*
X162667142Y-91908380D01*
X162905238Y-91908380D01*
X163048095Y-91956000D01*
X163143333Y-92051238D01*
X163190952Y-92146476D01*
X163238571Y-92336952D01*
X163238571Y-92479809D01*
X163190952Y-92670285D01*
X163143333Y-92765523D01*
X163048095Y-92860761D01*
X162905238Y-92908380D01*
X162667142Y-92908380D01*
X164190952Y-92908380D02*
X163619523Y-92908380D01*
X163905238Y-92908380D02*
X163905238Y-91908380D01*
X163810000Y-92051238D01*
X163714761Y-92146476D01*
X163619523Y-92194095D01*
X164028380Y-97589428D02*
X163028380Y-97589428D01*
X163742666Y-97256095D01*
X163028380Y-96922761D01*
X164028380Y-96922761D01*
X164028380Y-96446571D02*
X163028380Y-96446571D01*
X163980761Y-96018000D02*
X164028380Y-95875142D01*
X164028380Y-95637047D01*
X163980761Y-95541809D01*
X163933142Y-95494190D01*
X163837904Y-95446571D01*
X163742666Y-95446571D01*
X163647428Y-95494190D01*
X163599809Y-95541809D01*
X163552190Y-95637047D01*
X163504571Y-95827523D01*
X163456952Y-95922761D01*
X163409333Y-95970380D01*
X163314095Y-96018000D01*
X163218857Y-96018000D01*
X163123619Y-95970380D01*
X163076000Y-95922761D01*
X163028380Y-95827523D01*
X163028380Y-95589428D01*
X163076000Y-95446571D01*
X163028380Y-94827523D02*
X163028380Y-94637047D01*
X163076000Y-94541809D01*
X163171238Y-94446571D01*
X163361714Y-94398952D01*
X163695047Y-94398952D01*
X163885523Y-94446571D01*
X163980761Y-94541809D01*
X164028380Y-94637047D01*
X164028380Y-94827523D01*
X163980761Y-94922761D01*
X163885523Y-95018000D01*
X163695047Y-95065619D01*
X163361714Y-95065619D01*
X163171238Y-95018000D01*
X163076000Y-94922761D01*
X163028380Y-94827523D01*
X156313142Y-96940666D02*
X156360761Y-96988285D01*
X156408380Y-97131142D01*
X156408380Y-97226380D01*
X156360761Y-97369238D01*
X156265523Y-97464476D01*
X156170285Y-97512095D01*
X155979809Y-97559714D01*
X155836952Y-97559714D01*
X155646476Y-97512095D01*
X155551238Y-97464476D01*
X155456000Y-97369238D01*
X155408380Y-97226380D01*
X155408380Y-97131142D01*
X155456000Y-96988285D01*
X155503619Y-96940666D01*
X156360761Y-96559714D02*
X156408380Y-96416857D01*
X156408380Y-96178761D01*
X156360761Y-96083523D01*
X156313142Y-96035904D01*
X156217904Y-95988285D01*
X156122666Y-95988285D01*
X156027428Y-96035904D01*
X155979809Y-96083523D01*
X155932190Y-96178761D01*
X155884571Y-96369238D01*
X155836952Y-96464476D01*
X155789333Y-96512095D01*
X155694095Y-96559714D01*
X155598857Y-96559714D01*
X155503619Y-96512095D01*
X155456000Y-96464476D01*
X155408380Y-96369238D01*
X155408380Y-96131142D01*
X155456000Y-95988285D01*
X158900761Y-97551714D02*
X158948380Y-97408857D01*
X158948380Y-97170761D01*
X158900761Y-97075523D01*
X158853142Y-97027904D01*
X158757904Y-96980285D01*
X158662666Y-96980285D01*
X158567428Y-97027904D01*
X158519809Y-97075523D01*
X158472190Y-97170761D01*
X158424571Y-97361238D01*
X158376952Y-97456476D01*
X158329333Y-97504095D01*
X158234095Y-97551714D01*
X158138857Y-97551714D01*
X158043619Y-97504095D01*
X157996000Y-97456476D01*
X157948380Y-97361238D01*
X157948380Y-97123142D01*
X157996000Y-96980285D01*
X158853142Y-95980285D02*
X158900761Y-96027904D01*
X158948380Y-96170761D01*
X158948380Y-96266000D01*
X158900761Y-96408857D01*
X158805523Y-96504095D01*
X158710285Y-96551714D01*
X158519809Y-96599333D01*
X158376952Y-96599333D01*
X158186476Y-96551714D01*
X158091238Y-96504095D01*
X157996000Y-96408857D01*
X157948380Y-96266000D01*
X157948380Y-96170761D01*
X157996000Y-96027904D01*
X158043619Y-95980285D01*
X158948380Y-95551714D02*
X157948380Y-95551714D01*
X158948380Y-94980285D02*
X158376952Y-95408857D01*
X157948380Y-94980285D02*
X158519809Y-95551714D01*
X161488380Y-97589428D02*
X160488380Y-97589428D01*
X161202666Y-97256095D01*
X160488380Y-96922761D01*
X161488380Y-96922761D01*
X160488380Y-96256095D02*
X160488380Y-96065619D01*
X160536000Y-95970380D01*
X160631238Y-95875142D01*
X160821714Y-95827523D01*
X161155047Y-95827523D01*
X161345523Y-95875142D01*
X161440761Y-95970380D01*
X161488380Y-96065619D01*
X161488380Y-96256095D01*
X161440761Y-96351333D01*
X161345523Y-96446571D01*
X161155047Y-96494190D01*
X160821714Y-96494190D01*
X160631238Y-96446571D01*
X160536000Y-96351333D01*
X160488380Y-96256095D01*
X161440761Y-95446571D02*
X161488380Y-95303714D01*
X161488380Y-95065619D01*
X161440761Y-94970380D01*
X161393142Y-94922761D01*
X161297904Y-94875142D01*
X161202666Y-94875142D01*
X161107428Y-94922761D01*
X161059809Y-94970380D01*
X161012190Y-95065619D01*
X160964571Y-95256095D01*
X160916952Y-95351333D01*
X160869333Y-95398952D01*
X160774095Y-95446571D01*
X160678857Y-95446571D01*
X160583619Y-95398952D01*
X160536000Y-95351333D01*
X160488380Y-95256095D01*
X160488380Y-95018000D01*
X160536000Y-94875142D01*
X161488380Y-94446571D02*
X160488380Y-94446571D01*
X165568380Y-97601333D02*
X166568380Y-97268000D01*
X165568380Y-96934666D01*
X166473142Y-96029904D02*
X166520761Y-96077523D01*
X166568380Y-96220380D01*
X166568380Y-96315619D01*
X166520761Y-96458476D01*
X166425523Y-96553714D01*
X166330285Y-96601333D01*
X166139809Y-96648952D01*
X165996952Y-96648952D01*
X165806476Y-96601333D01*
X165711238Y-96553714D01*
X165616000Y-96458476D01*
X165568380Y-96315619D01*
X165568380Y-96220380D01*
X165616000Y-96077523D01*
X165663619Y-96029904D01*
X166473142Y-95029904D02*
X166520761Y-95077523D01*
X166568380Y-95220380D01*
X166568380Y-95315619D01*
X166520761Y-95458476D01*
X166425523Y-95553714D01*
X166330285Y-95601333D01*
X166139809Y-95648952D01*
X165996952Y-95648952D01*
X165806476Y-95601333D01*
X165711238Y-95553714D01*
X165616000Y-95458476D01*
X165568380Y-95315619D01*
X165568380Y-95220380D01*
X165616000Y-95077523D01*
X165663619Y-95029904D01*
X168410000Y-97029904D02*
X168362380Y-97125142D01*
X168362380Y-97268000D01*
X168410000Y-97410857D01*
X168505238Y-97506095D01*
X168600476Y-97553714D01*
X168790952Y-97601333D01*
X168933809Y-97601333D01*
X169124285Y-97553714D01*
X169219523Y-97506095D01*
X169314761Y-97410857D01*
X169362380Y-97268000D01*
X169362380Y-97172761D01*
X169314761Y-97029904D01*
X169267142Y-96982285D01*
X168933809Y-96982285D01*
X168933809Y-97172761D01*
X169362380Y-96553714D02*
X168362380Y-96553714D01*
X169362380Y-95982285D01*
X168362380Y-95982285D01*
X169362380Y-95506095D02*
X168362380Y-95506095D01*
X168362380Y-95268000D01*
X168410000Y-95125142D01*
X168505238Y-95029904D01*
X168600476Y-94982285D01*
X168790952Y-94934666D01*
X168933809Y-94934666D01*
X169124285Y-94982285D01*
X169219523Y-95029904D01*
X169314761Y-95125142D01*
X169362380Y-95268000D01*
X169362380Y-95506095D01*
%TO.C,R6*%
X156662380Y-104560666D02*
X156186190Y-104894000D01*
X156662380Y-105132095D02*
X155662380Y-105132095D01*
X155662380Y-104751142D01*
X155710000Y-104655904D01*
X155757619Y-104608285D01*
X155852857Y-104560666D01*
X155995714Y-104560666D01*
X156090952Y-104608285D01*
X156138571Y-104655904D01*
X156186190Y-104751142D01*
X156186190Y-105132095D01*
X155662380Y-103703523D02*
X155662380Y-103894000D01*
X155710000Y-103989238D01*
X155757619Y-104036857D01*
X155900476Y-104132095D01*
X156090952Y-104179714D01*
X156471904Y-104179714D01*
X156567142Y-104132095D01*
X156614761Y-104084476D01*
X156662380Y-103989238D01*
X156662380Y-103798761D01*
X156614761Y-103703523D01*
X156567142Y-103655904D01*
X156471904Y-103608285D01*
X156233809Y-103608285D01*
X156138571Y-103655904D01*
X156090952Y-103703523D01*
X156043333Y-103798761D01*
X156043333Y-103989238D01*
X156090952Y-104084476D01*
X156138571Y-104132095D01*
X156233809Y-104179714D01*
X155995714Y-111751904D02*
X156662380Y-111751904D01*
X155614761Y-111990000D02*
X156329047Y-112228095D01*
X156329047Y-111609047D01*
X155662380Y-111323333D02*
X155662380Y-110656666D01*
X156662380Y-111085238D01*
X155662380Y-110085238D02*
X155662380Y-109990000D01*
X155710000Y-109894761D01*
X155757619Y-109847142D01*
X155852857Y-109799523D01*
X156043333Y-109751904D01*
X156281428Y-109751904D01*
X156471904Y-109799523D01*
X156567142Y-109847142D01*
X156614761Y-109894761D01*
X156662380Y-109990000D01*
X156662380Y-110085238D01*
X156614761Y-110180476D01*
X156567142Y-110228095D01*
X156471904Y-110275714D01*
X156281428Y-110323333D01*
X156043333Y-110323333D01*
X155852857Y-110275714D01*
X155757619Y-110228095D01*
X155710000Y-110180476D01*
X155662380Y-110085238D01*
X156662380Y-108751904D02*
X156186190Y-109085238D01*
X156662380Y-109323333D02*
X155662380Y-109323333D01*
X155662380Y-108942380D01*
X155710000Y-108847142D01*
X155757619Y-108799523D01*
X155852857Y-108751904D01*
X155995714Y-108751904D01*
X156090952Y-108799523D01*
X156138571Y-108847142D01*
X156186190Y-108942380D01*
X156186190Y-109323333D01*
%TO.C,R5*%
X160472380Y-104560666D02*
X159996190Y-104894000D01*
X160472380Y-105132095D02*
X159472380Y-105132095D01*
X159472380Y-104751142D01*
X159520000Y-104655904D01*
X159567619Y-104608285D01*
X159662857Y-104560666D01*
X159805714Y-104560666D01*
X159900952Y-104608285D01*
X159948571Y-104655904D01*
X159996190Y-104751142D01*
X159996190Y-105132095D01*
X159472380Y-103655904D02*
X159472380Y-104132095D01*
X159948571Y-104179714D01*
X159900952Y-104132095D01*
X159853333Y-104036857D01*
X159853333Y-103798761D01*
X159900952Y-103703523D01*
X159948571Y-103655904D01*
X160043809Y-103608285D01*
X160281904Y-103608285D01*
X160377142Y-103655904D01*
X160424761Y-103703523D01*
X160472380Y-103798761D01*
X160472380Y-104036857D01*
X160424761Y-104132095D01*
X160377142Y-104179714D01*
X159805714Y-111751904D02*
X160472380Y-111751904D01*
X159424761Y-111990000D02*
X160139047Y-112228095D01*
X160139047Y-111609047D01*
X159472380Y-111323333D02*
X159472380Y-110656666D01*
X160472380Y-111085238D01*
X159472380Y-110085238D02*
X159472380Y-109990000D01*
X159520000Y-109894761D01*
X159567619Y-109847142D01*
X159662857Y-109799523D01*
X159853333Y-109751904D01*
X160091428Y-109751904D01*
X160281904Y-109799523D01*
X160377142Y-109847142D01*
X160424761Y-109894761D01*
X160472380Y-109990000D01*
X160472380Y-110085238D01*
X160424761Y-110180476D01*
X160377142Y-110228095D01*
X160281904Y-110275714D01*
X160091428Y-110323333D01*
X159853333Y-110323333D01*
X159662857Y-110275714D01*
X159567619Y-110228095D01*
X159520000Y-110180476D01*
X159472380Y-110085238D01*
X160472380Y-108751904D02*
X159996190Y-109085238D01*
X160472380Y-109323333D02*
X159472380Y-109323333D01*
X159472380Y-108942380D01*
X159520000Y-108847142D01*
X159567619Y-108799523D01*
X159662857Y-108751904D01*
X159805714Y-108751904D01*
X159900952Y-108799523D01*
X159948571Y-108847142D01*
X159996190Y-108942380D01*
X159996190Y-109323333D01*
%TO.C,R4*%
X164282380Y-104560666D02*
X163806190Y-104894000D01*
X164282380Y-105132095D02*
X163282380Y-105132095D01*
X163282380Y-104751142D01*
X163330000Y-104655904D01*
X163377619Y-104608285D01*
X163472857Y-104560666D01*
X163615714Y-104560666D01*
X163710952Y-104608285D01*
X163758571Y-104655904D01*
X163806190Y-104751142D01*
X163806190Y-105132095D01*
X163615714Y-103703523D02*
X164282380Y-103703523D01*
X163234761Y-103941619D02*
X163949047Y-104179714D01*
X163949047Y-103560666D01*
X163615714Y-111751904D02*
X164282380Y-111751904D01*
X163234761Y-111990000D02*
X163949047Y-112228095D01*
X163949047Y-111609047D01*
X163282380Y-111323333D02*
X163282380Y-110656666D01*
X164282380Y-111085238D01*
X163282380Y-110085238D02*
X163282380Y-109990000D01*
X163330000Y-109894761D01*
X163377619Y-109847142D01*
X163472857Y-109799523D01*
X163663333Y-109751904D01*
X163901428Y-109751904D01*
X164091904Y-109799523D01*
X164187142Y-109847142D01*
X164234761Y-109894761D01*
X164282380Y-109990000D01*
X164282380Y-110085238D01*
X164234761Y-110180476D01*
X164187142Y-110228095D01*
X164091904Y-110275714D01*
X163901428Y-110323333D01*
X163663333Y-110323333D01*
X163472857Y-110275714D01*
X163377619Y-110228095D01*
X163330000Y-110180476D01*
X163282380Y-110085238D01*
X164282380Y-108751904D02*
X163806190Y-109085238D01*
X164282380Y-109323333D02*
X163282380Y-109323333D01*
X163282380Y-108942380D01*
X163330000Y-108847142D01*
X163377619Y-108799523D01*
X163472857Y-108751904D01*
X163615714Y-108751904D01*
X163710952Y-108799523D01*
X163758571Y-108847142D01*
X163806190Y-108942380D01*
X163806190Y-109323333D01*
%TO.C,R3*%
X168092380Y-104560666D02*
X167616190Y-104894000D01*
X168092380Y-105132095D02*
X167092380Y-105132095D01*
X167092380Y-104751142D01*
X167140000Y-104655904D01*
X167187619Y-104608285D01*
X167282857Y-104560666D01*
X167425714Y-104560666D01*
X167520952Y-104608285D01*
X167568571Y-104655904D01*
X167616190Y-104751142D01*
X167616190Y-105132095D01*
X167092380Y-104227333D02*
X167092380Y-103608285D01*
X167473333Y-103941619D01*
X167473333Y-103798761D01*
X167520952Y-103703523D01*
X167568571Y-103655904D01*
X167663809Y-103608285D01*
X167901904Y-103608285D01*
X167997142Y-103655904D01*
X168044761Y-103703523D01*
X168092380Y-103798761D01*
X168092380Y-104084476D01*
X168044761Y-104179714D01*
X167997142Y-104227333D01*
X167425714Y-111497904D02*
X168092380Y-111497904D01*
X167044761Y-111736000D02*
X167759047Y-111974095D01*
X167759047Y-111355047D01*
X167092380Y-111069333D02*
X167092380Y-110402666D01*
X168092380Y-110831238D01*
X167092380Y-109831238D02*
X167092380Y-109736000D01*
X167140000Y-109640761D01*
X167187619Y-109593142D01*
X167282857Y-109545523D01*
X167473333Y-109497904D01*
X167711428Y-109497904D01*
X167901904Y-109545523D01*
X167997142Y-109593142D01*
X168044761Y-109640761D01*
X168092380Y-109736000D01*
X168092380Y-109831238D01*
X168044761Y-109926476D01*
X167997142Y-109974095D01*
X167901904Y-110021714D01*
X167711428Y-110069333D01*
X167473333Y-110069333D01*
X167282857Y-110021714D01*
X167187619Y-109974095D01*
X167140000Y-109926476D01*
X167092380Y-109831238D01*
X168092380Y-108497904D02*
X167616190Y-108831238D01*
X168092380Y-109069333D02*
X167092380Y-109069333D01*
X167092380Y-108688380D01*
X167140000Y-108593142D01*
X167187619Y-108545523D01*
X167282857Y-108497904D01*
X167425714Y-108497904D01*
X167520952Y-108545523D01*
X167568571Y-108593142D01*
X167616190Y-108688380D01*
X167616190Y-109069333D01*
%TO.C,J2*%
X120102380Y-102441333D02*
X120816666Y-102441333D01*
X120959523Y-102488952D01*
X121054761Y-102584190D01*
X121102380Y-102727047D01*
X121102380Y-102822285D01*
X120197619Y-102012761D02*
X120150000Y-101965142D01*
X120102380Y-101869904D01*
X120102380Y-101631809D01*
X120150000Y-101536571D01*
X120197619Y-101488952D01*
X120292857Y-101441333D01*
X120388095Y-101441333D01*
X120530952Y-101488952D01*
X121102380Y-102060380D01*
X121102380Y-101441333D01*
%TO.C,D5*%
X183840380Y-79478095D02*
X182840380Y-79478095D01*
X182840380Y-79240000D01*
X182888000Y-79097142D01*
X182983238Y-79001904D01*
X183078476Y-78954285D01*
X183268952Y-78906666D01*
X183411809Y-78906666D01*
X183602285Y-78954285D01*
X183697523Y-79001904D01*
X183792761Y-79097142D01*
X183840380Y-79240000D01*
X183840380Y-79478095D01*
X182840380Y-78001904D02*
X182840380Y-78478095D01*
X183316571Y-78525714D01*
X183268952Y-78478095D01*
X183221333Y-78382857D01*
X183221333Y-78144761D01*
X183268952Y-78049523D01*
X183316571Y-78001904D01*
X183411809Y-77954285D01*
X183649904Y-77954285D01*
X183745142Y-78001904D01*
X183792761Y-78049523D01*
X183840380Y-78144761D01*
X183840380Y-78382857D01*
X183792761Y-78478095D01*
X183745142Y-78525714D01*
X177442761Y-81216190D02*
X177490380Y-81073333D01*
X177490380Y-80835238D01*
X177442761Y-80740000D01*
X177395142Y-80692380D01*
X177299904Y-80644761D01*
X177204666Y-80644761D01*
X177109428Y-80692380D01*
X177061809Y-80740000D01*
X177014190Y-80835238D01*
X176966571Y-81025714D01*
X176918952Y-81120952D01*
X176871333Y-81168571D01*
X176776095Y-81216190D01*
X176680857Y-81216190D01*
X176585619Y-81168571D01*
X176538000Y-81120952D01*
X176490380Y-81025714D01*
X176490380Y-80787619D01*
X176538000Y-80644761D01*
X176490380Y-80359047D02*
X176490380Y-79787619D01*
X177490380Y-80073333D02*
X176490380Y-80073333D01*
X177204666Y-79501904D02*
X177204666Y-79025714D01*
X177490380Y-79597142D02*
X176490380Y-79263809D01*
X177490380Y-78930476D01*
X176490380Y-78740000D02*
X176490380Y-78168571D01*
X177490380Y-78454285D02*
X176490380Y-78454285D01*
X176490380Y-77835238D02*
X177299904Y-77835238D01*
X177395142Y-77787619D01*
X177442761Y-77740000D01*
X177490380Y-77644761D01*
X177490380Y-77454285D01*
X177442761Y-77359047D01*
X177395142Y-77311428D01*
X177299904Y-77263809D01*
X176490380Y-77263809D01*
X177442761Y-76835238D02*
X177490380Y-76692380D01*
X177490380Y-76454285D01*
X177442761Y-76359047D01*
X177395142Y-76311428D01*
X177299904Y-76263809D01*
X177204666Y-76263809D01*
X177109428Y-76311428D01*
X177061809Y-76359047D01*
X177014190Y-76454285D01*
X176966571Y-76644761D01*
X176918952Y-76740000D01*
X176871333Y-76787619D01*
X176776095Y-76835238D01*
X176680857Y-76835238D01*
X176585619Y-76787619D01*
X176538000Y-76740000D01*
X176490380Y-76644761D01*
X176490380Y-76406666D01*
X176538000Y-76263809D01*
%TO.C,D4*%
X180284380Y-89638095D02*
X179284380Y-89638095D01*
X179284380Y-89400000D01*
X179332000Y-89257142D01*
X179427238Y-89161904D01*
X179522476Y-89114285D01*
X179712952Y-89066666D01*
X179855809Y-89066666D01*
X180046285Y-89114285D01*
X180141523Y-89161904D01*
X180236761Y-89257142D01*
X180284380Y-89400000D01*
X180284380Y-89638095D01*
X179617714Y-88209523D02*
X180284380Y-88209523D01*
X179236761Y-88447619D02*
X179951047Y-88685714D01*
X179951047Y-88066666D01*
X177490380Y-90947619D02*
X176490380Y-90947619D01*
X176490380Y-90566666D01*
X176538000Y-90471428D01*
X176585619Y-90423809D01*
X176680857Y-90376190D01*
X176823714Y-90376190D01*
X176918952Y-90423809D01*
X176966571Y-90471428D01*
X177014190Y-90566666D01*
X177014190Y-90947619D01*
X177204666Y-89995238D02*
X177204666Y-89519047D01*
X177490380Y-90090476D02*
X176490380Y-89757142D01*
X177490380Y-89423809D01*
X177490380Y-88519047D02*
X177014190Y-88852380D01*
X177490380Y-89090476D02*
X176490380Y-89090476D01*
X176490380Y-88709523D01*
X176538000Y-88614285D01*
X176585619Y-88566666D01*
X176680857Y-88519047D01*
X176823714Y-88519047D01*
X176918952Y-88566666D01*
X176966571Y-88614285D01*
X177014190Y-88709523D01*
X177014190Y-89090476D01*
X176490380Y-88233333D02*
X176490380Y-87661904D01*
X177490380Y-87947619D02*
X176490380Y-87947619D01*
X176823714Y-86900000D02*
X177490380Y-86900000D01*
X176442761Y-87138095D02*
X177157047Y-87376190D01*
X177157047Y-86757142D01*
%TO.C,D3*%
X183840380Y-97258095D02*
X182840380Y-97258095D01*
X182840380Y-97020000D01*
X182888000Y-96877142D01*
X182983238Y-96781904D01*
X183078476Y-96734285D01*
X183268952Y-96686666D01*
X183411809Y-96686666D01*
X183602285Y-96734285D01*
X183697523Y-96781904D01*
X183792761Y-96877142D01*
X183840380Y-97020000D01*
X183840380Y-97258095D01*
X182840380Y-96353333D02*
X182840380Y-95734285D01*
X183221333Y-96067619D01*
X183221333Y-95924761D01*
X183268952Y-95829523D01*
X183316571Y-95781904D01*
X183411809Y-95734285D01*
X183649904Y-95734285D01*
X183745142Y-95781904D01*
X183792761Y-95829523D01*
X183840380Y-95924761D01*
X183840380Y-96210476D01*
X183792761Y-96305714D01*
X183745142Y-96353333D01*
X177490380Y-98567619D02*
X176490380Y-98567619D01*
X176490380Y-98186666D01*
X176538000Y-98091428D01*
X176585619Y-98043809D01*
X176680857Y-97996190D01*
X176823714Y-97996190D01*
X176918952Y-98043809D01*
X176966571Y-98091428D01*
X177014190Y-98186666D01*
X177014190Y-98567619D01*
X177204666Y-97615238D02*
X177204666Y-97139047D01*
X177490380Y-97710476D02*
X176490380Y-97377142D01*
X177490380Y-97043809D01*
X177490380Y-96139047D02*
X177014190Y-96472380D01*
X177490380Y-96710476D02*
X176490380Y-96710476D01*
X176490380Y-96329523D01*
X176538000Y-96234285D01*
X176585619Y-96186666D01*
X176680857Y-96139047D01*
X176823714Y-96139047D01*
X176918952Y-96186666D01*
X176966571Y-96234285D01*
X177014190Y-96329523D01*
X177014190Y-96710476D01*
X176490380Y-95853333D02*
X176490380Y-95281904D01*
X177490380Y-95567619D02*
X176490380Y-95567619D01*
X176490380Y-95043809D02*
X176490380Y-94424761D01*
X176871333Y-94758095D01*
X176871333Y-94615238D01*
X176918952Y-94520000D01*
X176966571Y-94472380D01*
X177061809Y-94424761D01*
X177299904Y-94424761D01*
X177395142Y-94472380D01*
X177442761Y-94520000D01*
X177490380Y-94615238D01*
X177490380Y-94900952D01*
X177442761Y-94996190D01*
X177395142Y-95043809D01*
%TO.C,D2*%
X183840380Y-104878095D02*
X182840380Y-104878095D01*
X182840380Y-104640000D01*
X182888000Y-104497142D01*
X182983238Y-104401904D01*
X183078476Y-104354285D01*
X183268952Y-104306666D01*
X183411809Y-104306666D01*
X183602285Y-104354285D01*
X183697523Y-104401904D01*
X183792761Y-104497142D01*
X183840380Y-104640000D01*
X183840380Y-104878095D01*
X182935619Y-103925714D02*
X182888000Y-103878095D01*
X182840380Y-103782857D01*
X182840380Y-103544761D01*
X182888000Y-103449523D01*
X182935619Y-103401904D01*
X183030857Y-103354285D01*
X183126095Y-103354285D01*
X183268952Y-103401904D01*
X183840380Y-103973333D01*
X183840380Y-103354285D01*
X177490380Y-106187619D02*
X176490380Y-106187619D01*
X176490380Y-105806666D01*
X176538000Y-105711428D01*
X176585619Y-105663809D01*
X176680857Y-105616190D01*
X176823714Y-105616190D01*
X176918952Y-105663809D01*
X176966571Y-105711428D01*
X177014190Y-105806666D01*
X177014190Y-106187619D01*
X177204666Y-105235238D02*
X177204666Y-104759047D01*
X177490380Y-105330476D02*
X176490380Y-104997142D01*
X177490380Y-104663809D01*
X177490380Y-103759047D02*
X177014190Y-104092380D01*
X177490380Y-104330476D02*
X176490380Y-104330476D01*
X176490380Y-103949523D01*
X176538000Y-103854285D01*
X176585619Y-103806666D01*
X176680857Y-103759047D01*
X176823714Y-103759047D01*
X176918952Y-103806666D01*
X176966571Y-103854285D01*
X177014190Y-103949523D01*
X177014190Y-104330476D01*
X176490380Y-103473333D02*
X176490380Y-102901904D01*
X177490380Y-103187619D02*
X176490380Y-103187619D01*
X176585619Y-102616190D02*
X176538000Y-102568571D01*
X176490380Y-102473333D01*
X176490380Y-102235238D01*
X176538000Y-102140000D01*
X176585619Y-102092380D01*
X176680857Y-102044761D01*
X176776095Y-102044761D01*
X176918952Y-102092380D01*
X177490380Y-102663809D01*
X177490380Y-102044761D01*
%TO.C,C1*%
X149201142Y-64936666D02*
X149248761Y-64984285D01*
X149296380Y-65127142D01*
X149296380Y-65222380D01*
X149248761Y-65365238D01*
X149153523Y-65460476D01*
X149058285Y-65508095D01*
X148867809Y-65555714D01*
X148724952Y-65555714D01*
X148534476Y-65508095D01*
X148439238Y-65460476D01*
X148344000Y-65365238D01*
X148296380Y-65222380D01*
X148296380Y-65127142D01*
X148344000Y-64984285D01*
X148391619Y-64936666D01*
X149296380Y-63984285D02*
X149296380Y-64555714D01*
X149296380Y-64270000D02*
X148296380Y-64270000D01*
X148439238Y-64365238D01*
X148534476Y-64460476D01*
X148582095Y-64555714D01*
%TO.C,A1*%
X138985714Y-71286666D02*
X139461904Y-71286666D01*
X138890476Y-71572380D02*
X139223809Y-70572380D01*
X139557142Y-71572380D01*
X140414285Y-71572380D02*
X139842857Y-71572380D01*
X140128571Y-71572380D02*
X140128571Y-70572380D01*
X140033333Y-70715238D01*
X139938095Y-70810476D01*
X139842857Y-70858095D01*
%TO.C,SW1*%
X181978761Y-69203333D02*
X182026380Y-69060476D01*
X182026380Y-68822380D01*
X181978761Y-68727142D01*
X181931142Y-68679523D01*
X181835904Y-68631904D01*
X181740666Y-68631904D01*
X181645428Y-68679523D01*
X181597809Y-68727142D01*
X181550190Y-68822380D01*
X181502571Y-69012857D01*
X181454952Y-69108095D01*
X181407333Y-69155714D01*
X181312095Y-69203333D01*
X181216857Y-69203333D01*
X181121619Y-69155714D01*
X181074000Y-69108095D01*
X181026380Y-69012857D01*
X181026380Y-68774761D01*
X181074000Y-68631904D01*
X181026380Y-68298571D02*
X182026380Y-68060476D01*
X181312095Y-67870000D01*
X182026380Y-67679523D01*
X181026380Y-67441428D01*
X182026380Y-66536666D02*
X182026380Y-67108095D01*
X182026380Y-66822380D02*
X181026380Y-66822380D01*
X181169238Y-66917619D01*
X181264476Y-67012857D01*
X181312095Y-67108095D01*
X176966571Y-69848571D02*
X176966571Y-69515238D01*
X177490380Y-69372380D02*
X177490380Y-69848571D01*
X176490380Y-69848571D01*
X176490380Y-69372380D01*
X176490380Y-68658095D02*
X177204666Y-68658095D01*
X177347523Y-68705714D01*
X177442761Y-68800952D01*
X177490380Y-68943809D01*
X177490380Y-69039047D01*
X176966571Y-68181904D02*
X176966571Y-67848571D01*
X177490380Y-67705714D02*
X177490380Y-68181904D01*
X176490380Y-68181904D01*
X176490380Y-67705714D01*
X177395142Y-66705714D02*
X177442761Y-66753333D01*
X177490380Y-66896190D01*
X177490380Y-66991428D01*
X177442761Y-67134285D01*
X177347523Y-67229523D01*
X177252285Y-67277142D01*
X177061809Y-67324761D01*
X176918952Y-67324761D01*
X176728476Y-67277142D01*
X176633238Y-67229523D01*
X176538000Y-67134285D01*
X176490380Y-66991428D01*
X176490380Y-66896190D01*
X176538000Y-66753333D01*
X176585619Y-66705714D01*
X176490380Y-66420000D02*
X176490380Y-65848571D01*
X177490380Y-66134285D02*
X176490380Y-66134285D01*
%TO.C,R2*%
X171902380Y-104560666D02*
X171426190Y-104894000D01*
X171902380Y-105132095D02*
X170902380Y-105132095D01*
X170902380Y-104751142D01*
X170950000Y-104655904D01*
X170997619Y-104608285D01*
X171092857Y-104560666D01*
X171235714Y-104560666D01*
X171330952Y-104608285D01*
X171378571Y-104655904D01*
X171426190Y-104751142D01*
X171426190Y-105132095D01*
X170997619Y-104179714D02*
X170950000Y-104132095D01*
X170902380Y-104036857D01*
X170902380Y-103798761D01*
X170950000Y-103703523D01*
X170997619Y-103655904D01*
X171092857Y-103608285D01*
X171188095Y-103608285D01*
X171330952Y-103655904D01*
X171902380Y-104227333D01*
X171902380Y-103608285D01*
X171235714Y-111497904D02*
X171902380Y-111497904D01*
X170854761Y-111736000D02*
X171569047Y-111974095D01*
X171569047Y-111355047D01*
X170902380Y-111069333D02*
X170902380Y-110402666D01*
X171902380Y-110831238D01*
X170902380Y-109831238D02*
X170902380Y-109736000D01*
X170950000Y-109640761D01*
X170997619Y-109593142D01*
X171092857Y-109545523D01*
X171283333Y-109497904D01*
X171521428Y-109497904D01*
X171711904Y-109545523D01*
X171807142Y-109593142D01*
X171854761Y-109640761D01*
X171902380Y-109736000D01*
X171902380Y-109831238D01*
X171854761Y-109926476D01*
X171807142Y-109974095D01*
X171711904Y-110021714D01*
X171521428Y-110069333D01*
X171283333Y-110069333D01*
X171092857Y-110021714D01*
X170997619Y-109974095D01*
X170950000Y-109926476D01*
X170902380Y-109831238D01*
X171902380Y-108497904D02*
X171426190Y-108831238D01*
X171902380Y-109069333D02*
X170902380Y-109069333D01*
X170902380Y-108688380D01*
X170950000Y-108593142D01*
X170997619Y-108545523D01*
X171092857Y-108497904D01*
X171235714Y-108497904D01*
X171330952Y-108545523D01*
X171378571Y-108593142D01*
X171426190Y-108688380D01*
X171426190Y-109069333D01*
%TO.C,R1*%
X152852380Y-104560666D02*
X152376190Y-104894000D01*
X152852380Y-105132095D02*
X151852380Y-105132095D01*
X151852380Y-104751142D01*
X151900000Y-104655904D01*
X151947619Y-104608285D01*
X152042857Y-104560666D01*
X152185714Y-104560666D01*
X152280952Y-104608285D01*
X152328571Y-104655904D01*
X152376190Y-104751142D01*
X152376190Y-105132095D01*
X152852380Y-103608285D02*
X152852380Y-104179714D01*
X152852380Y-103894000D02*
X151852380Y-103894000D01*
X151995238Y-103989238D01*
X152090476Y-104084476D01*
X152138095Y-104179714D01*
X152852380Y-111180476D02*
X152852380Y-111751904D01*
X152852380Y-111466190D02*
X151852380Y-111466190D01*
X151995238Y-111561428D01*
X152090476Y-111656666D01*
X152138095Y-111751904D01*
X151852380Y-110561428D02*
X151852380Y-110466190D01*
X151900000Y-110370952D01*
X151947619Y-110323333D01*
X152042857Y-110275714D01*
X152233333Y-110228095D01*
X152471428Y-110228095D01*
X152661904Y-110275714D01*
X152757142Y-110323333D01*
X152804761Y-110370952D01*
X152852380Y-110466190D01*
X152852380Y-110561428D01*
X152804761Y-110656666D01*
X152757142Y-110704285D01*
X152661904Y-110751904D01*
X152471428Y-110799523D01*
X152233333Y-110799523D01*
X152042857Y-110751904D01*
X151947619Y-110704285D01*
X151900000Y-110656666D01*
X151852380Y-110561428D01*
X152852380Y-109799523D02*
X151852380Y-109799523D01*
X152852380Y-109228095D02*
X152280952Y-109656666D01*
X151852380Y-109228095D02*
X152423809Y-109799523D01*
%TO.C,JP1*%
X140676380Y-65857333D02*
X141390666Y-65857333D01*
X141533523Y-65904952D01*
X141628761Y-66000190D01*
X141676380Y-66143047D01*
X141676380Y-66238285D01*
X141676380Y-65381142D02*
X140676380Y-65381142D01*
X140676380Y-65000190D01*
X140724000Y-64904952D01*
X140771619Y-64857333D01*
X140866857Y-64809714D01*
X141009714Y-64809714D01*
X141104952Y-64857333D01*
X141152571Y-64904952D01*
X141200190Y-65000190D01*
X141200190Y-65381142D01*
X141676380Y-63857333D02*
X141676380Y-64428761D01*
X141676380Y-64143047D02*
X140676380Y-64143047D01*
X140819238Y-64238285D01*
X140914476Y-64333523D01*
X140962095Y-64428761D01*
%TO.C,J1*%
X126452380Y-108283333D02*
X127166666Y-108283333D01*
X127309523Y-108330952D01*
X127404761Y-108426190D01*
X127452380Y-108569047D01*
X127452380Y-108664285D01*
X127452380Y-107283333D02*
X127452380Y-107854761D01*
X127452380Y-107569047D02*
X126452380Y-107569047D01*
X126595238Y-107664285D01*
X126690476Y-107759523D01*
X126738095Y-107854761D01*
%TO.C,D1*%
X183840380Y-112498095D02*
X182840380Y-112498095D01*
X182840380Y-112260000D01*
X182888000Y-112117142D01*
X182983238Y-112021904D01*
X183078476Y-111974285D01*
X183268952Y-111926666D01*
X183411809Y-111926666D01*
X183602285Y-111974285D01*
X183697523Y-112021904D01*
X183792761Y-112117142D01*
X183840380Y-112260000D01*
X183840380Y-112498095D01*
X183840380Y-110974285D02*
X183840380Y-111545714D01*
X183840380Y-111260000D02*
X182840380Y-111260000D01*
X182983238Y-111355238D01*
X183078476Y-111450476D01*
X183126095Y-111545714D01*
X177490380Y-113553619D02*
X176490380Y-113553619D01*
X176490380Y-113172666D01*
X176538000Y-113077428D01*
X176585619Y-113029809D01*
X176680857Y-112982190D01*
X176823714Y-112982190D01*
X176918952Y-113029809D01*
X176966571Y-113077428D01*
X177014190Y-113172666D01*
X177014190Y-113553619D01*
X177204666Y-112601238D02*
X177204666Y-112125047D01*
X177490380Y-112696476D02*
X176490380Y-112363142D01*
X177490380Y-112029809D01*
X177490380Y-111125047D02*
X177014190Y-111458380D01*
X177490380Y-111696476D02*
X176490380Y-111696476D01*
X176490380Y-111315523D01*
X176538000Y-111220285D01*
X176585619Y-111172666D01*
X176680857Y-111125047D01*
X176823714Y-111125047D01*
X176918952Y-111172666D01*
X176966571Y-111220285D01*
X177014190Y-111315523D01*
X177014190Y-111696476D01*
X176490380Y-110839333D02*
X176490380Y-110267904D01*
X177490380Y-110553619D02*
X176490380Y-110553619D01*
X177490380Y-109410761D02*
X177490380Y-109982190D01*
X177490380Y-109696476D02*
X176490380Y-109696476D01*
X176633238Y-109791714D01*
X176728476Y-109886952D01*
X176776095Y-109982190D01*
%TD*%
%LPC*%
D13*
%TO.C,MOD1*%
X172310000Y-63018000D03*
X152310000Y-63018000D03*
D14*
X168660000Y-99768000D03*
X166120000Y-99768000D03*
X163580000Y-99768000D03*
X161040000Y-99768000D03*
X158500000Y-99768000D03*
X155960000Y-99768000D03*
%TD*%
D15*
%TO.C,R6*%
X156210000Y-106680000D03*
D16*
X156210000Y-114300000D03*
%TD*%
D15*
%TO.C,R5*%
X160020000Y-106680000D03*
D16*
X160020000Y-114300000D03*
%TD*%
D15*
%TO.C,R4*%
X163830000Y-106680000D03*
D16*
X163830000Y-114300000D03*
%TD*%
D15*
%TO.C,R3*%
X167640000Y-106680000D03*
D16*
X167640000Y-114300000D03*
%TD*%
D17*
%TO.C,J2*%
X120650000Y-78740000D03*
X120650000Y-81280000D03*
X120650000Y-83820000D03*
X120650000Y-86360000D03*
X120650000Y-88900000D03*
X120650000Y-91440000D03*
X120650000Y-93980000D03*
X120650000Y-96520000D03*
D18*
X120650000Y-99060000D03*
%TD*%
D19*
%TO.C,D5*%
X181610000Y-77470000D03*
D20*
X181610000Y-80010000D03*
%TD*%
D19*
%TO.C,D4*%
X181610000Y-87630000D03*
D20*
X181610000Y-90170000D03*
%TD*%
D19*
%TO.C,D3*%
X181610000Y-95250000D03*
D20*
X181610000Y-97790000D03*
%TD*%
D19*
%TO.C,D2*%
X181610000Y-102870000D03*
D20*
X181610000Y-105410000D03*
%TD*%
D21*
%TO.C,C1*%
X146280000Y-64770000D03*
D22*
X144780000Y-64770000D03*
%TD*%
D15*
%TO.C,A1*%
X147320000Y-109220000D03*
X132080000Y-109220000D03*
X147320000Y-73660000D03*
X132080000Y-106680000D03*
X147320000Y-76200000D03*
X132080000Y-104140000D03*
X147320000Y-78740000D03*
X132080000Y-101600000D03*
X147320000Y-81280000D03*
X132080000Y-99060000D03*
X147320000Y-83820000D03*
X132080000Y-96520000D03*
X147320000Y-86360000D03*
X132080000Y-93980000D03*
X147320000Y-88900000D03*
X132080000Y-91440000D03*
X147320000Y-91440000D03*
X132080000Y-88900000D03*
X147320000Y-93980000D03*
X132080000Y-86360000D03*
X147320000Y-96520000D03*
X132080000Y-83820000D03*
X147320000Y-99060000D03*
X132080000Y-81280000D03*
X147320000Y-101600000D03*
X132080000Y-78740000D03*
X147320000Y-104140000D03*
X132080000Y-76200000D03*
X147320000Y-106680000D03*
D23*
X132080000Y-73660000D03*
%TD*%
D24*
%TO.C,SW1*%
X179324000Y-71120000D03*
X179324000Y-64620000D03*
X183824000Y-71120000D03*
X183824000Y-64620000D03*
%TD*%
D15*
%TO.C,R2*%
X171450000Y-106680000D03*
D16*
X171450000Y-114300000D03*
%TD*%
D15*
%TO.C,R1*%
X152400000Y-114300000D03*
D16*
X152400000Y-106680000D03*
%TD*%
D17*
%TO.C,JP1*%
X138430000Y-63754000D03*
D18*
X138430000Y-66294000D03*
%TD*%
D25*
%TO.C,J1*%
X125580000Y-112340000D03*
X125580000Y-65240000D03*
D16*
X124160000Y-73555000D03*
X124160000Y-76325000D03*
X124160000Y-79095000D03*
X124160000Y-81865000D03*
X124160000Y-84635000D03*
X124160000Y-87405000D03*
X124160000Y-90175000D03*
X124160000Y-92945000D03*
X124160000Y-95715000D03*
X124160000Y-98485000D03*
X124160000Y-101255000D03*
X124160000Y-104025000D03*
X127000000Y-72170000D03*
X127000000Y-74940000D03*
X127000000Y-77710000D03*
X127000000Y-80480000D03*
X127000000Y-83250000D03*
X127000000Y-86020000D03*
X127000000Y-88790000D03*
X127000000Y-91560000D03*
X127000000Y-94330000D03*
X127000000Y-97100000D03*
X127000000Y-99870000D03*
X127000000Y-102640000D03*
D23*
X127000000Y-105410000D03*
%TD*%
D19*
%TO.C,D1*%
X181610000Y-110490000D03*
D20*
X181610000Y-113030000D03*
%TD*%
M02*
