M48
; DRILL file {KiCad (5.1.9)-1} date 02/16/21 00:15:57
; FORMAT={-:-/ absolute / inch / decimal}
; #@! TF.CreationDate,2021-02-16T00:15:57-06:00
; #@! TF.GenerationSoftware,Kicad,Pcbnew,(5.1.9)-1
FMAT,2
INCH
T1C0.0157
T2C0.0236
T3C0.0315
T4C0.0354
T5C0.0394
T6C0.1260
T7C0.0984
%
G90
G05
T1
X5.5Y-2.85
X6.02Y-3.53
T2
X5.7Y-2.55
X5.7591Y-2.55
T3
X6.0Y-4.2
X6.0Y-4.5
X6.1402Y-3.9279
X6.15Y-4.2
X6.15Y-4.5
X6.2402Y-3.9279
X6.3Y-4.2
X6.3Y-4.5
X6.3402Y-3.9279
X6.4402Y-3.9279
X6.45Y-4.2
X6.45Y-4.5
X6.5402Y-3.9279
X6.6Y-4.2
X6.6Y-4.5
X6.6402Y-3.9279
X6.75Y-4.2
X6.75Y-4.5
T4
X7.15Y-3.05
X7.15Y-3.15
X7.15Y-3.45
X7.15Y-3.55
X7.15Y-3.75
X7.15Y-3.85
X7.15Y-4.05
X7.15Y-4.15
X7.15Y-4.35
X7.15Y-4.45
T5
X4.75Y-3.1
X4.75Y-3.2
X4.75Y-3.3
X4.75Y-3.4
X4.75Y-3.5
X4.75Y-3.6
X4.75Y-3.7
X4.75Y-3.8
X4.75Y-3.9
X4.8882Y-2.8959
X4.8882Y-3.0049
X4.8882Y-3.114
X4.8882Y-3.223
X4.8882Y-3.3321
X4.8882Y-3.4411
X4.8882Y-3.5502
X4.8882Y-3.6593
X4.8882Y-3.7683
X4.8882Y-3.8774
X4.8882Y-3.9864
X4.8882Y-4.0955
X5.0Y-2.8413
X5.0Y-2.9504
X5.0Y-3.0594
X5.0Y-3.1685
X5.0Y-3.2776
X5.0Y-3.3866
X5.0Y-3.4957
X5.0Y-3.6047
X5.0Y-3.7138
X5.0Y-3.8228
X5.0Y-3.9319
X5.0Y-4.0409
X5.0Y-4.15
X5.2Y-2.9
X5.2Y-3.0
X5.2Y-3.1
X5.2Y-3.2
X5.2Y-3.3
X5.2Y-3.4
X5.2Y-3.5
X5.2Y-3.6
X5.2Y-3.7
X5.2Y-3.8
X5.2Y-3.9
X5.2Y-4.0
X5.2Y-4.1
X5.2Y-4.2
X5.2Y-4.3
X5.45Y-2.51
X5.45Y-2.61
X5.8Y-2.9
X5.8Y-3.0
X5.8Y-3.1
X5.8Y-3.2
X5.8Y-3.3
X5.8Y-3.4
X5.8Y-3.5
X5.8Y-3.6
X5.8Y-3.7
X5.8Y-3.8
X5.8Y-3.9
X5.8Y-4.0
X5.8Y-4.1
X5.8Y-4.2
X5.8Y-4.3
X7.06Y-2.5441
X7.06Y-2.8
X7.2372Y-2.5441
X7.2372Y-2.8
T6
X4.9441Y-2.5685
X4.9441Y-4.4228
T7
X5.9965Y-2.481
X6.7839Y-2.481
T0
M30
