%TF.GenerationSoftware,KiCad,Pcbnew,(5.1.9)-1*%
%TF.CreationDate,2021-02-16T00:15:54-06:00*%
%TF.ProjectId,SmartportSD-Nano-Shield,536d6172-7470-46f7-9274-53442d4e616e,rev?*%
%TF.SameCoordinates,Original*%
%TF.FileFunction,Legend,Bot*%
%TF.FilePolarity,Positive*%
%FSLAX46Y46*%
G04 Gerber Fmt 4.6, Leading zero omitted, Abs format (unit mm)*
G04 Created by KiCad (PCBNEW (5.1.9)-1) date 2021-02-16 00:15:54*
%MOMM*%
%LPD*%
G01*
G04 APERTURE LIST*
%ADD10C,2.500000*%
%ADD11O,1.200000X2.000000*%
%ADD12O,1.600000X1.600000*%
%ADD13C,1.600000*%
%ADD14O,1.700000X1.700000*%
%ADD15R,1.700000X1.700000*%
%ADD16C,1.800000*%
%ADD17R,1.800000X1.800000*%
%ADD18C,1.200000*%
%ADD19R,1.200000X1.200000*%
%ADD20R,1.600000X1.600000*%
%ADD21C,1.700000*%
%ADD22C,4.000000*%
G04 APERTURE END LIST*
%LPC*%
D10*
%TO.C,MOD1*%
X172310000Y-63018000D03*
X152310000Y-63018000D03*
D11*
X168660000Y-99768000D03*
X166120000Y-99768000D03*
X163580000Y-99768000D03*
X161040000Y-99768000D03*
X158500000Y-99768000D03*
X155960000Y-99768000D03*
%TD*%
D12*
%TO.C,R6*%
X156210000Y-106680000D03*
D13*
X156210000Y-114300000D03*
%TD*%
D12*
%TO.C,R5*%
X160020000Y-106680000D03*
D13*
X160020000Y-114300000D03*
%TD*%
D12*
%TO.C,R4*%
X163830000Y-106680000D03*
D13*
X163830000Y-114300000D03*
%TD*%
D12*
%TO.C,R3*%
X167640000Y-106680000D03*
D13*
X167640000Y-114300000D03*
%TD*%
D14*
%TO.C,J2*%
X120650000Y-78740000D03*
X120650000Y-81280000D03*
X120650000Y-83820000D03*
X120650000Y-86360000D03*
X120650000Y-88900000D03*
X120650000Y-91440000D03*
X120650000Y-93980000D03*
X120650000Y-96520000D03*
D15*
X120650000Y-99060000D03*
%TD*%
D16*
%TO.C,D5*%
X181610000Y-77470000D03*
D17*
X181610000Y-80010000D03*
%TD*%
D16*
%TO.C,D4*%
X181610000Y-87630000D03*
D17*
X181610000Y-90170000D03*
%TD*%
D16*
%TO.C,D3*%
X181610000Y-95250000D03*
D17*
X181610000Y-97790000D03*
%TD*%
D16*
%TO.C,D2*%
X181610000Y-102870000D03*
D17*
X181610000Y-105410000D03*
%TD*%
D18*
%TO.C,C1*%
X146280000Y-64770000D03*
D19*
X144780000Y-64770000D03*
%TD*%
D12*
%TO.C,A1*%
X147320000Y-109220000D03*
X132080000Y-109220000D03*
X147320000Y-73660000D03*
X132080000Y-106680000D03*
X147320000Y-76200000D03*
X132080000Y-104140000D03*
X147320000Y-78740000D03*
X132080000Y-101600000D03*
X147320000Y-81280000D03*
X132080000Y-99060000D03*
X147320000Y-83820000D03*
X132080000Y-96520000D03*
X147320000Y-86360000D03*
X132080000Y-93980000D03*
X147320000Y-88900000D03*
X132080000Y-91440000D03*
X147320000Y-91440000D03*
X132080000Y-88900000D03*
X147320000Y-93980000D03*
X132080000Y-86360000D03*
X147320000Y-96520000D03*
X132080000Y-83820000D03*
X147320000Y-99060000D03*
X132080000Y-81280000D03*
X147320000Y-101600000D03*
X132080000Y-78740000D03*
X147320000Y-104140000D03*
X132080000Y-76200000D03*
X147320000Y-106680000D03*
D20*
X132080000Y-73660000D03*
%TD*%
D21*
%TO.C,SW1*%
X179324000Y-71120000D03*
X179324000Y-64620000D03*
X183824000Y-71120000D03*
X183824000Y-64620000D03*
%TD*%
D12*
%TO.C,R2*%
X171450000Y-106680000D03*
D13*
X171450000Y-114300000D03*
%TD*%
D12*
%TO.C,R1*%
X152400000Y-114300000D03*
D13*
X152400000Y-106680000D03*
%TD*%
D14*
%TO.C,JP1*%
X138430000Y-63754000D03*
D15*
X138430000Y-66294000D03*
%TD*%
D22*
%TO.C,J1*%
X125580000Y-112340000D03*
X125580000Y-65240000D03*
D13*
X124160000Y-73555000D03*
X124160000Y-76325000D03*
X124160000Y-79095000D03*
X124160000Y-81865000D03*
X124160000Y-84635000D03*
X124160000Y-87405000D03*
X124160000Y-90175000D03*
X124160000Y-92945000D03*
X124160000Y-95715000D03*
X124160000Y-98485000D03*
X124160000Y-101255000D03*
X124160000Y-104025000D03*
X127000000Y-72170000D03*
X127000000Y-74940000D03*
X127000000Y-77710000D03*
X127000000Y-80480000D03*
X127000000Y-83250000D03*
X127000000Y-86020000D03*
X127000000Y-88790000D03*
X127000000Y-91560000D03*
X127000000Y-94330000D03*
X127000000Y-97100000D03*
X127000000Y-99870000D03*
X127000000Y-102640000D03*
D20*
X127000000Y-105410000D03*
%TD*%
D16*
%TO.C,D1*%
X181610000Y-110490000D03*
D17*
X181610000Y-113030000D03*
%TD*%
M02*
